<svg width="181" height="42" fill="none" xmlns="http://www.w3.org/2000/svg"><path d="M56.14 19.24a6.69 6.69 0 01-2.72-.52 4.47 4.47 0 01-1.86-1.52 4.31 4.31 0 01-.7-2.42h2.7c.03.65.26 1.2.7 1.66.45.44 1.07.66 1.86.66.68 0 1.22-.16 1.62-.48.4-.33.6-.77.6-1.32a1.7 1.7 0 00-.54-1.34 3.89 3.89 0 00-1.4-.78l-1.88-.64a6.28 6.28 0 01-2.48-1.44 3.25 3.25 0 01-.84-2.34 3.57 3.57 0 012.26-3.5c.7-.33 1.52-.5 2.44-.5.93 0 1.75.17 2.46.5A3.91 3.91 0 0160.7 8.8h-2.74c-.01-.5-.2-.93-.58-1.3a1.97 1.97 0 00-1.52-.58 2.2 2.2 0 00-1.42.42c-.37.28-.56.7-.56 1.24 0 .47.15.84.44 1.12.3.27.7.5 1.2.68.5.19 1.09.39 1.74.6.7.24 1.33.52 1.9.84.57.32 1.03.75 1.38 1.28.35.52.52 1.2.52 2.02a3.92 3.92 0 01-2.22 3.56 5.9 5.9 0 01-2.7.56zm10.81 0c-1.24 0-2.2-.39-2.88-1.16-.66-.77-1-1.9-1-3.4v-5.6h2.54v5.36c0 .85.18 1.5.52 1.96.35.45.9.68 1.64.68.71 0 1.29-.25 1.74-.76.47-.5.7-1.21.7-2.12V9.08h2.56V19h-2.26l-.2-1.68c-.3.59-.75 1.05-1.34 1.4-.57.35-1.24.52-2.02.52zm8.45 4.16V9.08h2.28l.28 1.42a3.83 3.83 0 013.32-1.66 4.66 4.66 0 014.24 2.54c.43.79.64 1.68.64 2.68 0 1-.21 1.9-.64 2.68-.43.77-1 1.39-1.74 1.84-.73.44-1.57.66-2.5.66-.75 0-1.4-.14-1.96-.42a3.53 3.53 0 01-1.36-1.18v5.76H75.4zm5.34-6.4a2.7 2.7 0 002.02-.82c.53-.55.8-1.25.8-2.12 0-.87-.27-1.58-.8-2.14a2.67 2.67 0 00-2.02-.84c-.83 0-1.5.28-2.04.84a2.95 2.95 0 00-.78 2.12c0 .87.26 1.58.78 2.14.53.55 1.21.82 2.04.82zm7.7 6.4V9.08h2.29L91 10.5a3.83 3.83 0 013.32-1.66 4.66 4.66 0 014.24 2.54c.43.79.64 1.68.64 2.68 0 1-.21 1.9-.64 2.68-.43.77-1 1.39-1.74 1.84-.73.44-1.57.66-2.5.66-.75 0-1.4-.14-1.96-.42A3.53 3.53 0 0191 17.64v5.76h-2.56zM93.8 17a2.7 2.7 0 002.02-.82c.53-.55.8-1.25.8-2.12 0-.87-.27-1.58-.8-2.14a2.67 2.67 0 00-2.02-.84c-.83 0-1.5.28-2.04.84a2.95 2.95 0 00-.78 2.12c0 .87.26 1.58.78 2.14.53.55 1.21.82 2.04.82zm12.46 2.24a4.97 4.97 0 01-5.08-5.2c0-1.03.23-1.93.69-2.7a4.93 4.93 0 014.42-2.5c.94 0 1.8.22 2.55.66a4.73 4.73 0 011.83 1.84c.45.77.67 1.67.67 2.7 0 1.03-.22 1.93-.67 2.72a4.77 4.77 0 01-1.83 1.82c-.77.44-1.63.66-2.58.66zm0-2.22c.67 0 1.25-.25 1.75-.74.49-.5.73-1.25.73-2.24 0-.99-.24-1.73-.73-2.22a2.37 2.37 0 00-3.48 0c-.48.5-.72 1.23-.72 2.22 0 .99.23 1.73.72 2.24.49.5 1.07.74 1.73.74zm7.37 1.98V9.08h2.28l.24 1.86a4.1 4.1 0 013.66-2.1v2.7h-.72c-.56 0-1.06.09-1.5.26-.44.17-.78.47-1.04.9a3.66 3.66 0 00-.36 1.78V19h-2.56zm12.35 0a3.86 3.86 0 01-2.5-.76c-.62-.5-.94-1.4-.94-2.7v-4.32h-1.7V9.08h1.7l.3-2.66h2.26v2.66h2.68v2.14h-2.68v4.34c0 .48.1.81.3 1 .22.17.58.26 1.08.26h1.24V19h-1.74zm8.83 0V5h2.56v14h-2.56zm5.21 0V9.08h2.26l.2 1.68c.3-.59.75-1.05 1.32-1.4a3.97 3.97 0 012.06-.52 3.6 3.6 0 012.86 1.16c.68.77 1.02 1.9 1.02 3.4V19h-2.56v-5.36c0-.85-.17-1.5-.52-1.96-.35-.45-.89-.68-1.62-.68-.72 0-1.31.25-1.78.76-.45.5-.68 1.21-.68 2.12V19h-2.56zm16.73.24a4.66 4.66 0 01-4.24-2.54 5.53 5.53 0 01-.64-2.68c0-1 .21-1.89.64-2.66a4.73 4.73 0 014.24-2.52c.75 0 1.4.14 1.96.42.56.28 1.01.67 1.36 1.18V4.6h2.56V19h-2.28l-.28-1.42c-.32.44-.75.83-1.28 1.16-.52.33-1.2.5-2.04.5zm.54-2.24c.83 0 1.5-.27 2.02-.82.53-.56.8-1.27.8-2.14a2.9 2.9 0 00-.8-2.12 2.63 2.63 0 00-2.02-.84 2.7 2.7 0 00-2.02.82 2.9 2.9 0 00-.8 2.12c0 .87.27 1.58.8 2.14s1.2.84 2.02.84zm9.33-9.46c-.47 0-.86-.14-1.16-.42a1.4 1.4 0 01-.44-1.06c0-.43.14-.77.44-1.04.3-.28.69-.42 1.16-.42.46 0 .84.14 1.14.42.3.27.46.61.46 1.04 0 .43-.16.78-.46 1.06-.3.28-.68.42-1.14.42zM165.33 19V9.08h2.56V19h-2.56zm8.65.24c-.86 0-1.56-.13-2.1-.4a2.9 2.9 0 01-1.22-1.1 2.9 2.9 0 01-.4-1.5c0-.92.36-1.67 1.08-2.24.72-.57 1.8-.86 3.24-.86h2.52v-.24c0-.68-.2-1.18-.58-1.5a2.18 2.18 0 00-1.44-.48c-.52 0-.98.13-1.36.38-.39.24-.63.6-.72 1.08h-2.5c.06-.72.3-1.35.72-1.88.42-.53.97-.94 1.64-1.22a5.5 5.5 0 012.24-.44c1.41 0 2.52.35 3.34 1.06.81.7 1.22 1.7 1.22 3V19h-2.18l-.24-1.6c-.3.53-.7.97-1.24 1.32-.52.35-1.2.52-2.02.52zm.58-2c.73 0 1.3-.24 1.7-.72.41-.48.67-1.07.78-1.78h-2.18c-.68 0-1.17.13-1.46.38-.3.24-.44.54-.44.9 0 .39.14.69.44.9.3.21.68.32 1.16.32z" fill="#2D2B35"/><path d="M54.6 38.14c-.84 0-1.56-.18-2.16-.54a3.72 3.72 0 01-1.4-1.52 5 5 0 01-.49-2.27c0-.86.17-1.62.5-2.27a3.7 3.7 0 013.55-2.08c.98 0 1.78.24 2.4.72a3.21 3.21 0 011.2 2.01h-1.42a2 2 0 00-.72-1.16 2.33 2.33 0 00-1.48-.43c-.84 0-1.5.28-1.99.86a3.5 3.5 0 00-.73 2.35c0 1 .24 1.77.73 2.34.49.57 1.15.85 2 .85.61 0 1.1-.13 1.47-.4.37-.28.6-.65.72-1.12h1.42a3.13 3.13 0 01-1.2 1.96c-.62.47-1.42.7-2.4.7zm8.87 0c-.83 0-1.56-.18-2.18-.55a3.89 3.89 0 01-1.47-1.52 4.72 4.72 0 01-.53-2.27c0-.86.18-1.6.53-2.26.35-.65.84-1.16 1.47-1.53a4.22 4.22 0 012.18-.55c.83 0 1.56.18 2.18.55.63.37 1.11.88 1.46 1.53.35.65.52 1.4.52 2.26 0 .86-.17 1.61-.52 2.27a3.8 3.8 0 01-1.46 1.52c-.62.37-1.35.55-2.18.55zm0-1.14c.58 0 1.08-.12 1.5-.38a2.6 2.6 0 001-1.1 3.8 3.8 0 00.37-1.72 3.8 3.8 0 00-.36-1.72 2.6 2.6 0 00-1.01-1.1 2.85 2.85 0 00-1.5-.38c-.58 0-1.08.12-1.51.38a2.6 2.6 0 00-1.01 1.1 3.9 3.9 0 00-.35 1.72c0 .66.12 1.24.35 1.72.24.48.58.84 1 1.1.44.26.94.38 1.52.38zm7.76 1l-3.1-8.4h1.35L72 36.68l2.53-7.08h1.34l-3.1 8.4h-1.54zm5.72 0v-8.4h1.27V38h-1.27zm2.98 0v-8.4h2.72c.98 0 1.8.17 2.42.52.64.34 1.12.83 1.42 1.46.31.62.47 1.37.47 2.23 0 .86-.16 1.6-.47 2.23-.3.63-.78 1.11-1.42 1.46-.63.33-1.44.5-2.42.5h-2.72zm1.27-1.08h1.4c.76 0 1.36-.12 1.8-.37.45-.25.77-.6.96-1.07.2-.46.3-1.02.3-1.67 0-.65-.1-1.2-.3-1.68-.19-.47-.51-.83-.96-1.08a3.58 3.58 0 00-1.8-.38h-1.4v6.25zM91.39 38v-8.4h2.89c.66 0 1.2.11 1.63.34.43.22.75.52.96.9.2.38.31.8.31 1.27 0 .52-.14.99-.42 1.41-.27.43-.7.73-1.28.92L97.27 38h-1.48l-1.63-3.38h-1.5V38h-1.27zm1.27-4.34h1.55c.57 0 1-.14 1.26-.42.27-.28.4-.65.4-1.1 0-.44-.13-.8-.4-1.06-.25-.28-.68-.41-1.27-.41h-1.54v2.99zM98.69 38v-8.4h5.34v1.03h-4.07v2.62h3.7v1h-3.7v2.72h4.07V38h-5.34zm9.63.14a3.8 3.8 0 01-1.63-.32 2.58 2.58 0 01-1.09-.92c-.25-.4-.38-.88-.4-1.43h1.35c0 .45.17.83.47 1.14.3.31.73.47 1.28.47.5 0 .87-.12 1.14-.35.28-.24.42-.55.42-.91 0-.3-.06-.54-.2-.72-.13-.19-.3-.34-.54-.46a4.77 4.77 0 00-.78-.32l-.94-.32a3.53 3.53 0 01-1.46-.84c-.32-.34-.48-.8-.48-1.35 0-.47.1-.89.32-1.24.23-.35.55-.62.96-.81.42-.2.9-.3 1.45-.3.55 0 1.03.1 1.43.3a2.27 2.27 0 011.33 2.08h-1.34a1.32 1.32 0 00-.66-1.1c-.22-.14-.48-.2-.8-.2-.4-.01-.72.09-.99.3-.25.2-.38.5-.38.86 0 .33.1.58.29.76.19.17.45.32.79.44l1.15.4c.42.13.79.3 1.12.49.33.19.59.44.78.75.2.32.3.71.3 1.2 0 .42-.11.81-.33 1.18-.21.36-.54.66-.97.89-.43.22-.96.33-1.6.33zm8.15 0c-.83 0-1.56-.18-2.18-.55a3.89 3.89 0 01-1.46-1.52 4.72 4.72 0 01-.53-2.27c0-.86.17-1.6.53-2.26.35-.65.84-1.16 1.46-1.53a4.22 4.22 0 012.18-.55c.84 0 1.56.18 2.19.55.62.37 1.1.88 1.45 1.53.35.65.53 1.4.53 2.26 0 .86-.18 1.61-.53 2.27a3.8 3.8 0 01-1.45 1.52c-.63.37-1.35.55-2.19.55zm0-1.14c.58 0 1.08-.12 1.5-.38a2.6 2.6 0 001.01-1.1 3.8 3.8 0 00.36-1.72 3.8 3.8 0 00-.36-1.72 2.6 2.6 0 00-1-1.1 2.85 2.85 0 00-1.5-.38c-.58 0-1.09.12-1.52.38a2.6 2.6 0 00-1 1.1 3.9 3.9 0 00-.35 1.72c0 .66.11 1.24.34 1.72.24.48.58.84 1.01 1.1.43.26.94.38 1.51.38zm8.73 1.14c-.6 0-1.14-.11-1.63-.34-.48-.24-.87-.6-1.15-1.1a3.7 3.7 0 01-.42-1.86V29.6h1.27v5.26c0 .73.17 1.27.53 1.62.35.34.82.51 1.42.51s1.07-.17 1.42-.51c.35-.35.53-.89.53-1.62V29.6h1.27v5.24c0 .76-.15 1.38-.44 1.86-.3.5-.69.86-1.18 1.1-.49.23-1.03.34-1.62.34zm4.87-.14v-8.4h2.9c.66 0 1.2.11 1.63.34.43.22.75.52.96.9.2.38.3.8.3 1.27 0 .52-.13.99-.41 1.41-.27.43-.7.73-1.29.92l1.8 3.56h-1.49l-1.63-3.38h-1.5V38h-1.27zm1.27-4.34h1.55c.58 0 1-.14 1.26-.42.27-.28.4-.65.4-1.1 0-.44-.12-.8-.39-1.06-.26-.28-.69-.41-1.28-.41h-1.54v2.99zm9.78 4.48c-.84 0-1.56-.18-2.16-.54a3.72 3.72 0 01-1.4-1.52 5 5 0 01-.49-2.27c0-.86.17-1.62.5-2.27a3.7 3.7 0 013.55-2.08c.98 0 1.78.24 2.4.72a3.21 3.21 0 011.2 2.01h-1.42a2 2 0 00-.72-1.16 2.33 2.33 0 00-1.48-.43c-.84 0-1.5.28-1.99.86a3.5 3.5 0 00-.73 2.35c0 1 .24 1.77.73 2.34.49.57 1.15.85 2 .85.61 0 1.1-.13 1.47-.4.37-.28.6-.65.72-1.12h1.42a3.13 3.13 0 01-1.2 1.96c-.62.47-1.42.7-2.4.7zm5-.14v-8.4h5.33v1.03h-4.06v2.62h3.7v1h-3.7v2.72h4.06V38h-5.34zm9.62.14a3.8 3.8 0 01-1.62-.32 2.58 2.58 0 01-1.1-.92c-.25-.4-.38-.88-.39-1.43h1.35c0 .45.16.83.47 1.14.3.31.73.47 1.28.47.49 0 .87-.12 1.14-.35.28-.24.42-.55.42-.91 0-.3-.07-.54-.2-.72-.13-.19-.31-.34-.55-.46a4.77 4.77 0 00-.78-.32l-.93-.32a3.53 3.53 0 01-1.47-.84c-.32-.34-.48-.8-.48-1.35 0-.47.1-.89.33-1.24s.55-.62.96-.81c.42-.2.9-.3 1.45-.3.54 0 1.02.1 1.43.3a2.27 2.27 0 011.33 2.08h-1.34a1.32 1.32 0 00-.66-1.1c-.22-.14-.48-.2-.8-.2-.4-.01-.73.09-1 .3-.25.2-.38.5-.38.86 0 .33.1.58.3.76.19.17.45.32.78.44l1.16.4c.41.13.78.3 1.11.49.33.19.6.44.78.75.2.32.3.71.3 1.2 0 .42-.1.81-.32 1.18-.22.36-.54.66-.97.89-.44.22-.97.33-1.6.33z" fill="#535B62"/><g clip-path="url(#clip0)"><path d="M19.86.84A12.61 12.61 0 008 9.24h23.78A12.72 12.72 0 0019.86.85z" fill="#F29C38"/><path d="M19.86 26.06c5.5 0 10.17-3.49 11.9-8.4H8a12.55 12.55 0 0011.85 8.4z" fill="#508B46"/><path d="M8 9.25a12.6 12.6 0 000 8.4h23.8a12.6 12.6 0 000-8.4H8z" fill="#fff"/><path d="M19.86 16.81a3.36 3.36 0 100-6.72 3.36 3.36 0 000 6.72z" fill="#428BC1"/><path d="M19.86 16.4a2.94 2.94 0 100-5.9 2.94 2.94 0 000 5.9z" fill="#fff"/><path d="M18.77 10.93a.21.21 0 100-.42.21.21 0 000 .42zM18.1 11.3a.21.21 0 100-.41.21.21 0 000 .42zM17.55 11.85a.21.21 0 100-.42.21.21 0 000 .42zM17.17 12.52a.21.21 0 100-.42.21.21 0 000 .42zM16.96 13.28a.21.21 0 100-.42.21.21 0 000 .42zM16.96 14.04a.21.21 0 100-.42.21.21 0 000 .42zM17.17 14.8a.21.21 0 100-.43.21.21 0 000 .42zM17.55 15.47a.21.21 0 100-.42.21.21 0 000 .42zM18.1 16.01a.21.21 0 100-.42.21.21 0 000 .42zM18.77 16.4a.21.21 0 100-.43.21.21 0 000 .42zM19.48 16.56a.21.21 0 100-.42.21.21 0 000 .42zM20.07 16.4c0-.13.08-.22.17-.26.12 0 .2.08.25.17 0 .12-.09.2-.17.25-.17.04-.25-.04-.25-.17zM21 16.4a.21.21 0 100-.43.21.21 0 000 .42zM21.67 16.01a.21.21 0 100-.42.21.21 0 000 .42zM22.21 15.47a.21.21 0 100-.42.21.21 0 000 .42zM22.59 14.8a.21.21 0 100-.43.21.21 0 000 .42zM22.8 14.04a.21.21 0 100-.42.21.21 0 000 .42zM22.8 13.28a.28.28 0 01-.25-.17c0-.12.08-.2.17-.25.12 0 .2.08.25.17.04.13-.04.2-.17.25zM22.59 12.52a.21.21 0 100-.42.21.21 0 000 .42zM22.21 11.85a.21.21 0 100-.42.21.21 0 000 .42zM21.67 11.3a.21.21 0 100-.41.21.21 0 000 .42zM21.2 10.8c-.04.13-.17.17-.3.13-.12-.04-.16-.17-.12-.3.04-.12.17-.16.3-.12.12.08.16.2.12.3zM20.45 10.55c0 .13-.13.2-.26.17-.12 0-.2-.13-.16-.25 0-.13.12-.21.25-.17.12.04.2.17.17.25zM19.69 10.5c0 .13-.08.22-.17.26a.28.28 0 01-.25-.17c0-.12.08-.2.17-.25.12-.04.25.04.25.17zM19.86 14.08a.63.63 0 100-1.26.63.63 0 000 1.26z" fill="#000C82"/><path d="M19.86 10.5l-.09 1.81.09 1.14.12-1.14-.12-1.8zM19.1 10.6l.38 1.8.38 1.05-.17-1.14-.59-1.72z" fill="#000C82"/><path d="M18.39 10.89l.84 1.63.63.93-.46-1.05-1.01-1.51zM17.8 11.35l1.22 1.38.84.72-.72-.88-1.34-1.22zM17.34 11.98l1.5 1 1.02.47-.93-.67-1.6-.8z" fill="#000C82"/><path d="M17.04 12.7l1.73.54 1.09.2-1.05-.37-1.77-.38zM16.92 13.45l1.85.08 1.09-.08-1.1-.08-1.84.08z" fill="#000C82"/><path d="M17.04 14.2l1.77-.37 1.05-.38-1.1.2-1.72.56zM17.34 14.92l1.6-.8.92-.67-1.01.46-1.51 1.01z" fill="#000C82"/><path d="M17.8 15.5l1.34-1.17.72-.88-.84.71-1.22 1.35zM18.39 16.01l1-1.55.47-1.01-.63.92-.84 1.64zM19.1 16.3l.59-1.72.17-1.13-.38 1.05-.38 1.8z" fill="#000C82"/><path d="M19.86 16.4l.12-1.82-.12-1.13-.09 1.13.09 1.81zM20.61 16.3l-.33-1.8-.42-1.05.2 1.13.55 1.73z" fill="#000C82"/><path d="M21.33 16.01l-.8-1.64-.67-.92.5 1.05.97 1.51zM21.96 15.5l-1.22-1.34-.88-.71.75.88 1.35 1.18z" fill="#000C82"/><path d="M22.42 14.92l-1.51-1-1.05-.47.92.67 1.64.8zM22.72 14.2l-1.73-.54-1.13-.21 1.1.38 1.76.38zM22.8 13.45l-1.8-.13-1.14.13 1.13.08 1.81-.08zM22.72 12.7l-1.77.37-1.1.38 1.14-.21 1.73-.55z" fill="#000C82"/><path d="M22.42 11.98l-1.64.8-.92.67 1.05-.46 1.51-1.01zM21.96 11.39l-1.35 1.18-.75.88.88-.72 1.22-1.34zM21.33 10.89l-.97 1.55-.5 1 .67-.92.8-1.63z" fill="#000C82"/><path d="M20.66 10.6l-.6 1.71-.2 1.14.42-1.05.38-1.8z" fill="#000C82"/></g><path d="M39.25 28.5c-.81-.74-2.1-.69-2.95 0l-6.42 5.14c-.78.63-1.76.97-2.78.97H18.9c-.61 0-1.11-.5-1.11-1.11 0-.61.5-1.11 1.1-1.11h5.45c1.1 0 2.13-.76 2.3-1.85a2.22 2.22 0 00-2.19-2.6h-11.1c-1.88 0-3.7.65-5.15 1.83l-3.23 2.62H1.1c-.61 0-1.11.5-1.11 1.1v6.67c0 .62.5 1.12 1.11 1.12H25.9c1 0 1.98-.34 2.78-.98l10.5-8.4a2.22 2.22 0 00.08-3.4z" fill="#8D81EF"/><defs><clipPath id="clip0"><path fill="#fff" transform="translate(6.5)" d="M0 0h26.9v26.9H0z"/></clipPath></defs></svg>