<svg width="511" height="74" viewBox="0 0 511 74" fill="none" xmlns="http://www.w3.org/2000/svg">
<path d="M98.1132 34V8.73171H102.734V30.3902H113.924V34H98.1132ZM120.378 13.3161C119.535 13.3161 118.837 13.0634 118.284 12.558C117.754 12.0527 117.49 11.415 117.49 10.6449C117.49 9.8748 117.754 9.2491 118.284 8.7678C118.837 8.26244 119.535 8.00976 120.378 8.00976C121.22 8.00976 121.906 8.26244 122.435 8.7678C122.989 9.2491 123.265 9.8748 123.265 10.6449C123.265 11.415 122.989 12.0527 122.435 12.558C121.906 13.0634 121.22 13.3161 120.378 13.3161ZM118.067 34V16.0956H122.688V34H118.067ZM132.348 34L125.778 16.0956H130.615L135.163 29.6322L139.711 16.0956H144.548L137.943 34H132.348ZM155.281 34.4332C153.476 34.4332 151.876 34.0481 150.48 33.278C149.084 32.508 147.989 31.425 147.195 30.0293C146.401 28.6335 146.004 27.0211 146.004 25.1922C146.004 23.3392 146.389 21.6907 147.159 20.2468C147.953 18.8029 149.036 17.6839 150.408 16.8898C151.804 16.0715 153.44 15.6624 155.317 15.6624C157.074 15.6624 158.626 16.0475 159.974 16.8176C161.321 17.5876 162.368 18.6465 163.114 19.9941C163.884 21.3177 164.269 22.7977 164.269 24.4341C164.269 24.6989 164.257 24.9756 164.233 25.2644C164.233 25.5532 164.221 25.854 164.197 26.1668H150.588C150.685 27.5626 151.166 28.6576 152.032 29.4517C152.923 30.2459 153.994 30.6429 155.245 30.6429C156.183 30.6429 156.966 30.4384 157.591 30.0293C158.241 29.5961 158.722 29.0426 159.035 28.3688H163.728C163.391 29.4998 162.825 30.5346 162.031 31.4732C161.261 32.3876 160.299 33.1096 159.143 33.639C158.012 34.1685 156.725 34.4332 155.281 34.4332ZM155.317 19.4166C154.186 19.4166 153.187 19.7415 152.321 20.3912C151.455 21.0169 150.901 21.9795 150.661 23.279H159.577C159.504 22.0998 159.071 21.1613 158.277 20.4634C157.483 19.7655 156.496 19.4166 155.317 19.4166ZM188.308 34.4332C185.757 34.4332 183.567 33.8917 181.738 32.8088C179.909 31.7018 178.502 30.1737 177.515 28.2244C176.528 26.2511 176.035 23.9769 176.035 21.402C176.035 18.827 176.528 16.5528 177.515 14.5795C178.502 12.6062 179.909 11.066 181.738 9.95902C183.567 8.85203 185.757 8.29854 188.308 8.29854C191.34 8.29854 193.819 9.05658 195.744 10.5727C197.693 12.0647 198.909 14.1704 199.39 16.8898H194.3C193.987 15.518 193.314 14.4472 192.279 13.6771C191.268 12.8829 189.92 12.4859 188.236 12.4859C185.902 12.4859 184.073 13.28 182.749 14.8683C181.425 16.4566 180.764 18.6345 180.764 21.402C180.764 24.1694 181.425 26.3473 182.749 27.9356C184.073 29.4998 185.902 30.282 188.236 30.282C189.92 30.282 191.268 29.921 192.279 29.199C193.314 28.453 193.987 27.4302 194.3 26.1307H199.39C198.909 28.7298 197.693 30.7633 195.744 32.2312C193.819 33.6992 191.34 34.4332 188.308 34.4332ZM211.963 34.4332C210.23 34.4332 208.666 34.0361 207.27 33.242C205.899 32.4478 204.804 31.3528 203.985 29.9571C203.191 28.5372 202.794 26.9008 202.794 25.0478C202.794 23.1948 203.203 21.5704 204.021 20.1746C204.84 18.7548 205.935 17.6478 207.306 16.8537C208.702 16.0595 210.266 15.6624 211.999 15.6624C213.708 15.6624 215.248 16.0595 216.62 16.8537C218.015 17.6478 219.11 18.7548 219.904 20.1746C220.723 21.5704 221.132 23.1948 221.132 25.0478C221.132 26.9008 220.723 28.5372 219.904 29.9571C219.11 31.3528 218.015 32.4478 216.62 33.242C215.224 34.0361 213.672 34.4332 211.963 34.4332ZM211.963 30.4263C213.166 30.4263 214.213 29.9811 215.103 29.0907C215.994 28.1763 216.439 26.8286 216.439 25.0478C216.439 23.267 215.994 21.9314 215.103 21.041C214.213 20.1265 213.178 19.6693 211.999 19.6693C210.772 19.6693 209.713 20.1265 208.822 21.041C207.956 21.9314 207.523 23.267 207.523 25.0478C207.523 26.8286 207.956 28.1763 208.822 29.0907C209.713 29.9811 210.76 30.4263 211.963 30.4263ZM229.219 34L222.649 16.0956H227.486L232.034 29.6322L236.583 16.0956H241.42L234.814 34H229.219ZM246.825 13.3161C245.982 13.3161 245.285 13.0634 244.731 12.558C244.202 12.0527 243.937 11.415 243.937 10.6449C243.937 9.8748 244.202 9.2491 244.731 8.7678C245.285 8.26244 245.982 8.00976 246.825 8.00976C247.667 8.00976 248.353 8.26244 248.882 8.7678C249.436 9.2491 249.713 9.8748 249.713 10.6449C249.713 11.415 249.436 12.0527 248.882 12.558C248.353 13.0634 247.667 13.3161 246.825 13.3161ZM244.514 34V16.0956H249.135V34H244.514ZM262.188 34.4332C260.503 34.4332 258.999 34.0241 257.676 33.2059C256.352 32.3876 255.305 31.2686 254.535 29.8488C253.765 28.4289 253.38 26.8166 253.38 25.0117C253.38 23.2068 253.765 21.6065 254.535 20.2107C255.305 18.7909 256.352 17.6839 257.676 16.8898C258.999 16.0715 260.503 15.6624 262.188 15.6624C263.536 15.6624 264.715 15.9151 265.725 16.4205C266.736 16.9259 267.554 17.6358 268.18 18.5502V8.00976H272.801V34H268.685L268.18 31.4371C267.603 32.2312 266.832 32.9291 265.87 33.5307C264.931 34.1324 263.704 34.4332 262.188 34.4332ZM263.163 30.3902C264.655 30.3902 265.87 29.8969 266.808 28.9102C267.771 27.8995 268.252 26.612 268.252 25.0478C268.252 23.4836 267.771 22.2081 266.808 21.2215C265.87 20.2107 264.655 19.7054 263.163 19.7054C261.695 19.7054 260.479 20.1987 259.517 21.1854C258.554 22.172 258.073 23.4475 258.073 25.0117C258.073 26.5759 258.554 27.8634 259.517 28.8741C260.479 29.8849 261.695 30.3902 263.163 30.3902ZM288.959 34V14.002L284.808 14.9766V11.439L290.908 8.73171H293.76V34H288.959ZM307.286 34.4332C305.53 34.4332 304.05 34.0963 302.846 33.4224C301.643 32.7246 300.705 31.8221 300.031 30.7151C299.357 29.6081 298.96 28.4169 298.84 27.1415H303.135C303.328 28.2485 303.785 29.1028 304.507 29.7044C305.253 30.306 306.191 30.6068 307.323 30.6068C308.935 30.6068 310.234 29.8728 311.221 28.4049C312.208 26.9128 312.737 24.6507 312.809 21.6185C312.232 22.6052 311.353 23.4234 310.174 24.0732C309.019 24.7229 307.744 25.0478 306.348 25.0478C304.952 25.0478 303.641 24.7109 302.413 24.0371C301.186 23.3633 300.187 22.4127 299.417 21.1854C298.647 19.958 298.262 18.5141 298.262 16.8537C298.262 15.3376 298.635 13.9298 299.381 12.6302C300.127 11.3307 301.162 10.2839 302.485 9.48976C303.809 8.69561 305.361 8.29854 307.142 8.29854C309.043 8.29854 310.644 8.64748 311.943 9.34536C313.243 10.0433 314.277 10.9818 315.047 12.161C315.842 13.3402 316.407 14.6517 316.744 16.0956C317.105 17.5395 317.285 19.0195 317.285 20.5356C317.285 23.3512 316.888 25.8059 316.094 27.8995C315.324 29.9691 314.181 31.5815 312.665 32.7366C311.173 33.8676 309.38 34.4332 307.286 34.4332ZM307.431 21.1493C308.321 21.1493 309.127 20.9567 309.849 20.5717C310.571 20.1626 311.137 19.6332 311.546 18.9834C311.955 18.3096 312.16 17.5636 312.16 16.7454C312.16 15.4459 311.702 14.375 310.788 13.5327C309.897 12.6904 308.766 12.2693 307.395 12.2693C306.047 12.2693 304.928 12.6904 304.038 13.5327C303.147 14.3509 302.702 15.3977 302.702 16.6732C302.702 18.0208 303.147 19.1037 304.038 19.922C304.928 20.7402 306.059 21.1493 307.431 21.1493ZM330.139 34V8.73171H339.416C341.437 8.73171 343.098 9.08065 344.397 9.77854C345.721 10.4524 346.708 11.3789 347.357 12.558C348.007 13.7132 348.332 15.0007 348.332 16.4205C348.332 17.9607 347.923 19.3685 347.105 20.6439C346.31 21.9193 345.059 22.8459 343.35 23.4234L348.585 34H343.278L338.586 24.0371H334.759V34H330.139ZM334.759 20.6439H339.127C340.667 20.6439 341.798 20.2709 342.52 19.5249C343.242 18.7789 343.603 17.7922 343.603 16.5649C343.603 15.3616 343.242 14.399 342.52 13.6771C341.822 12.9551 340.679 12.5941 339.091 12.5941H334.759V20.6439ZM360.128 34.4332C358.323 34.4332 356.722 34.0481 355.327 33.278C353.931 32.508 352.836 31.425 352.042 30.0293C351.248 28.6335 350.851 27.0211 350.851 25.1922C350.851 23.3392 351.236 21.6907 352.006 20.2468C352.8 18.8029 353.883 17.6839 355.254 16.8898C356.65 16.0715 358.287 15.6624 360.164 15.6624C361.92 15.6624 363.473 16.0475 364.82 16.8176C366.168 17.5876 367.215 18.6465 367.961 19.9941C368.731 21.3177 369.116 22.7977 369.116 24.4341C369.116 24.6989 369.104 24.9756 369.08 25.2644C369.08 25.5532 369.068 25.854 369.044 26.1668H355.435C355.531 27.5626 356.013 28.6576 356.879 29.4517C357.769 30.2459 358.84 30.6429 360.092 30.6429C361.03 30.6429 361.812 30.4384 362.438 30.0293C363.088 29.5961 363.569 29.0426 363.882 28.3688H368.574C368.238 29.4998 367.672 30.5346 366.878 31.4732C366.108 32.3876 365.145 33.1096 363.99 33.639C362.859 34.1685 361.572 34.4332 360.128 34.4332ZM360.164 19.4166C359.033 19.4166 358.034 19.7415 357.168 20.3912C356.301 21.0169 355.748 21.9795 355.507 23.279H364.423C364.351 22.0998 363.918 21.1613 363.124 20.4634C362.33 19.7655 361.343 19.4166 360.164 19.4166ZM380.402 34.4332C378.814 34.4332 377.418 34.1805 376.215 33.6751C375.011 33.1457 374.049 32.4237 373.327 31.5093C372.605 30.5948 372.172 29.5359 372.027 28.3327H376.684C376.828 29.0306 377.213 29.6322 377.839 30.1376C378.489 30.6189 379.319 30.8595 380.33 30.8595C381.341 30.8595 382.075 30.655 382.532 30.2459C383.013 29.8367 383.254 29.3675 383.254 28.838C383.254 28.068 382.917 27.5506 382.243 27.2859C381.569 26.9971 380.631 26.7203 379.427 26.4556C378.657 26.2872 377.875 26.0826 377.081 25.842C376.287 25.6013 375.553 25.3005 374.879 24.9395C374.229 24.5545 373.7 24.0732 373.291 23.4956C372.882 22.894 372.677 22.16 372.677 21.2937C372.677 19.7054 373.303 18.3698 374.554 17.2868C375.83 16.2039 377.61 15.6624 379.897 15.6624C382.014 15.6624 383.699 16.1558 384.95 17.1424C386.226 18.1291 386.984 19.4888 387.224 21.2215H382.857C382.592 19.8979 381.593 19.2361 379.861 19.2361C378.994 19.2361 378.32 19.4046 377.839 19.7415C377.382 20.0784 377.153 20.4995 377.153 21.0049C377.153 21.5343 377.502 21.9554 378.2 22.2683C378.898 22.5811 379.824 22.8699 380.98 23.1346C382.231 23.4234 383.374 23.7483 384.409 24.1093C385.468 24.4462 386.31 24.9636 386.936 25.6615C387.561 26.3353 387.874 27.3099 387.874 28.5854C387.898 29.6924 387.61 30.6911 387.008 31.5815C386.406 32.4719 385.54 33.1698 384.409 33.6751C383.278 34.1805 381.942 34.4332 380.402 34.4332ZM400.559 34.4332C398.826 34.4332 397.262 34.0361 395.866 33.242C394.494 32.4478 393.399 31.3528 392.581 29.9571C391.787 28.5372 391.39 26.9008 391.39 25.0478C391.39 23.1948 391.799 21.5704 392.617 20.1746C393.435 18.7548 394.53 17.6478 395.902 16.8537C397.298 16.0595 398.862 15.6624 400.595 15.6624C402.303 15.6624 403.843 16.0595 405.215 16.8537C406.611 17.6478 407.706 18.7548 408.5 20.1746C409.318 21.5704 409.727 23.1948 409.727 25.0478C409.727 26.9008 409.318 28.5372 408.5 29.9571C407.706 31.3528 406.611 32.4478 405.215 33.242C403.819 34.0361 402.267 34.4332 400.559 34.4332ZM400.559 30.4263C401.762 30.4263 402.809 29.9811 403.699 29.0907C404.589 28.1763 405.035 26.8286 405.035 25.0478C405.035 23.267 404.589 21.9314 403.699 21.041C402.809 20.1265 401.774 19.6693 400.595 19.6693C399.367 19.6693 398.309 20.1265 397.418 21.041C396.552 21.9314 396.119 23.267 396.119 25.0478C396.119 26.8286 396.552 28.1763 397.418 29.0907C398.309 29.9811 399.355 30.4263 400.559 30.4263ZM420.573 34.4332C418.335 34.4332 416.602 33.7353 415.375 32.3395C414.171 30.9437 413.57 28.8982 413.57 26.2029V16.0956H418.154V25.7698C418.154 27.3099 418.467 28.4891 419.093 29.3073C419.718 30.1255 420.705 30.5346 422.053 30.5346C423.328 30.5346 424.375 30.0774 425.193 29.1629C426.035 28.2485 426.457 26.973 426.457 25.3366V16.0956H431.077V34H426.998L426.637 30.9678C426.084 32.0267 425.277 32.8689 424.219 33.4946C423.184 34.1203 421.968 34.4332 420.573 34.4332ZM435.82 34V16.0956H439.935L440.369 19.4527C441.018 18.2976 441.897 17.3831 443.004 16.7093C444.135 16.0114 445.458 15.6624 446.974 15.6624V20.5356H445.675C444.664 20.5356 443.762 20.692 442.968 21.0049C442.173 21.3177 441.548 21.8592 441.091 22.6293C440.657 23.3993 440.441 24.4702 440.441 25.842V34H435.82ZM458.587 34.4332C456.758 34.4332 455.146 34.0361 453.75 33.242C452.354 32.4478 451.247 31.3408 450.429 29.921C449.635 28.5011 449.238 26.8767 449.238 25.0478C449.238 23.2189 449.635 21.5945 450.429 20.1746C451.247 18.7548 452.354 17.6478 453.75 16.8537C455.146 16.0595 456.758 15.6624 458.587 15.6624C460.873 15.6624 462.798 16.2641 464.362 17.4673C465.927 18.6465 466.925 20.2829 467.359 22.3766H462.485C462.245 21.5102 461.763 20.8364 461.041 20.3551C460.344 19.8498 459.513 19.5971 458.551 19.5971C457.275 19.5971 456.192 20.0784 455.302 21.041C454.412 22.0036 453.966 23.3392 453.966 25.0478C453.966 26.7564 454.412 28.092 455.302 29.0546C456.192 30.0172 457.275 30.4985 458.551 30.4985C459.513 30.4985 460.344 30.2579 461.041 29.7766C461.763 29.2953 462.245 28.6094 462.485 27.719H467.359C466.925 29.7405 465.927 31.3649 464.362 32.5922C462.798 33.8195 460.873 34.4332 458.587 34.4332ZM480.159 34.4332C478.354 34.4332 476.754 34.0481 475.358 33.278C473.962 32.508 472.867 31.425 472.073 30.0293C471.279 28.6335 470.882 27.0211 470.882 25.1922C470.882 23.3392 471.267 21.6907 472.037 20.2468C472.831 18.8029 473.914 17.6839 475.286 16.8898C476.682 16.0715 478.318 15.6624 480.195 15.6624C481.952 15.6624 483.504 16.0475 484.852 16.8176C486.199 17.5876 487.246 18.6465 487.992 19.9941C488.762 21.3177 489.147 22.7977 489.147 24.4341C489.147 24.6989 489.135 24.9756 489.111 25.2644C489.111 25.5532 489.099 25.854 489.075 26.1668H475.466C475.563 27.5626 476.044 28.6576 476.91 29.4517C477.801 30.2459 478.872 30.6429 480.123 30.6429C481.062 30.6429 481.844 30.4384 482.469 30.0293C483.119 29.5961 483.6 29.0426 483.913 28.3688H488.606C488.269 29.4998 487.703 30.5346 486.909 31.4732C486.139 32.3876 485.177 33.1096 484.022 33.639C482.89 34.1685 481.603 34.4332 480.159 34.4332ZM480.195 19.4166C479.064 19.4166 478.065 19.7415 477.199 20.3912C476.333 21.0169 475.779 21.9795 475.539 23.279H484.455C484.382 22.0998 483.949 21.1613 483.155 20.4634C482.361 19.7655 481.374 19.4166 480.195 19.4166ZM500.433 34.4332C498.845 34.4332 497.449 34.1805 496.246 33.6751C495.043 33.1457 494.08 32.4237 493.358 31.5093C492.636 30.5948 492.203 29.5359 492.059 28.3327H496.715C496.86 29.0306 497.245 29.6322 497.871 30.1376C498.52 30.6189 499.351 30.8595 500.361 30.8595C501.372 30.8595 502.106 30.655 502.563 30.2459C503.045 29.8367 503.285 29.3675 503.285 28.838C503.285 28.068 502.948 27.5506 502.274 27.2859C501.601 26.9971 500.662 26.7203 499.459 26.4556C498.689 26.2872 497.907 26.0826 497.112 25.842C496.318 25.6013 495.584 25.3005 494.911 24.9395C494.261 24.5545 493.731 24.0732 493.322 23.4956C492.913 22.894 492.709 22.16 492.709 21.2937C492.709 19.7054 493.334 18.3698 494.586 17.2868C495.861 16.2039 497.642 15.6624 499.928 15.6624C502.046 15.6624 503.73 16.1558 504.982 17.1424C506.257 18.1291 507.015 19.4888 507.256 21.2215H502.888C502.623 19.8979 501.625 19.2361 499.892 19.2361C499.026 19.2361 498.352 19.4046 497.871 19.7415C497.413 20.0784 497.185 20.4995 497.185 21.0049C497.185 21.5343 497.534 21.9554 498.232 22.2683C498.929 22.5811 499.856 22.8699 501.011 23.1346C502.262 23.4234 503.406 23.7483 504.44 24.1093C505.499 24.4462 506.341 24.9636 506.967 25.6615C507.593 26.3353 507.906 27.3099 507.906 28.5854C507.93 29.6924 507.641 30.6911 507.039 31.5815C506.438 32.4719 505.571 33.1698 504.44 33.6751C503.309 34.1805 501.974 34.4332 500.433 34.4332Z" fill="#2D2B35"/>
<path d="M97.1963 68.7314V53.5705H102.113C103.889 53.5705 105.347 53.8809 106.488 54.5018C107.643 55.1227 108.495 56.0034 109.044 57.1441C109.607 58.2704 109.888 59.6132 109.888 61.1726C109.888 62.7176 109.607 64.0604 109.044 65.2011C108.495 66.3273 107.643 67.2009 106.488 67.8218C105.347 68.4282 103.889 68.7314 102.113 68.7314H97.1963ZM99.4921 66.7822H102.026C103.398 66.7822 104.481 66.5584 105.275 66.1108C106.084 65.6632 106.661 65.0206 107.008 64.1832C107.369 63.3457 107.549 62.3422 107.549 61.1726C107.549 60.0031 107.369 58.9923 107.008 58.1404C106.661 57.2885 106.084 56.6388 105.275 56.1912C104.481 55.7291 103.398 55.4981 102.026 55.4981H99.4921V66.7822ZM110.414 68.7314L116.002 53.5705H118.514L124.059 68.7314H121.633L120.334 65.0278H114.139L112.84 68.7314H110.414ZM114.789 63.2085H119.684L117.236 56.2994L114.789 63.2085ZM128.075 68.7314V55.4331H123.592V53.5705H134.833V55.4331H130.371V68.7314H128.075ZM134.357 68.7314L139.945 53.5705H142.457L148.002 68.7314H145.576L144.276 65.0278H138.082L136.783 68.7314H134.357ZM138.732 63.2085H143.627L141.179 56.2994L138.732 63.2085ZM155.573 68.7314V53.5705H165.081V55.4331H157.869V60.2196H163.846V62.0606H157.869V68.7314H155.573ZM167.333 68.7314V53.5705H172.552C173.751 53.5705 174.733 53.7726 175.498 54.1769C176.278 54.5812 176.855 55.1299 177.231 55.823C177.606 56.5016 177.794 57.2596 177.794 58.0971C177.794 59.0356 177.541 59.8875 177.036 60.6528C176.545 61.4181 175.772 61.9668 174.718 62.2989L177.945 68.7314H175.281L172.336 62.6237H169.629V68.7314H167.333ZM169.629 60.8911H172.423C173.462 60.8911 174.22 60.6384 174.697 60.133C175.188 59.6276 175.433 58.9707 175.433 58.1621C175.433 57.3535 175.195 56.711 174.718 56.2345C174.242 55.7435 173.469 55.4981 172.401 55.4981H169.629V60.8911ZM187.505 68.9913C186.004 68.9913 184.69 68.6593 183.564 67.9951C182.437 67.3309 181.557 66.414 180.921 65.2444C180.286 64.0604 179.968 62.6959 179.968 61.151C179.968 59.606 180.286 58.2487 180.921 57.0792C181.557 55.8952 182.437 54.9711 183.564 54.3069C184.69 53.6427 186.004 53.3106 187.505 53.3106C189.007 53.3106 190.321 53.6427 191.447 54.3069C192.574 54.9711 193.447 55.8952 194.068 57.0792C194.703 58.2487 195.021 59.606 195.021 61.151C195.021 62.6959 194.703 64.0604 194.068 65.2444C193.447 66.414 192.574 67.3309 191.447 67.9951C190.321 68.6593 189.007 68.9913 187.505 68.9913ZM187.505 66.9338C188.545 66.9338 189.448 66.7028 190.213 66.2407C190.993 65.7787 191.599 65.1145 192.032 64.2481C192.465 63.3818 192.682 62.3494 192.682 61.151C192.682 59.9525 192.465 58.9201 192.032 58.0538C191.599 57.1874 190.993 56.5232 190.213 56.0612C189.448 55.5992 188.545 55.3681 187.505 55.3681C186.466 55.3681 185.556 55.5992 184.777 56.0612C183.997 56.5232 183.39 57.1874 182.957 58.0538C182.538 58.9201 182.329 59.9525 182.329 61.151C182.329 62.3494 182.538 63.3818 182.957 64.2481C183.39 65.1145 183.997 65.7787 184.777 66.2407C185.556 66.7028 186.466 66.9338 187.505 66.9338ZM197.579 68.7314V53.5705H200.286L205.419 63.6633L210.53 53.5705H213.238V68.7314H210.942V57.534L206.307 66.5656H204.531L199.874 57.5556V68.7314H197.579ZM221.775 68.7314V53.5705H224.483L229.616 63.6633L234.727 53.5705H237.434V68.7314H235.139V57.534L230.504 66.5656H228.728L224.071 57.5556V68.7314H221.775ZM246.189 68.9913C245.107 68.9913 244.125 68.782 243.244 68.3633C242.378 67.9301 241.684 67.2731 241.165 66.3923C240.659 65.5115 240.407 64.3925 240.407 63.0352V53.5705H242.702V63.0569C242.702 64.3853 243.02 65.3599 243.655 65.9808C244.291 66.6017 245.15 66.9121 246.233 66.9121C247.301 66.9121 248.153 66.6017 248.788 65.9808C249.424 65.3599 249.741 64.3853 249.741 63.0569V53.5705H252.037V63.0352C252.037 64.3925 251.77 65.5115 251.236 66.3923C250.716 67.2731 250.009 67.9301 249.113 68.3633C248.233 68.782 247.258 68.9913 246.189 68.9913ZM254.982 68.7314V53.5705H257.278V66.9121H264.165V68.7314H254.982ZM267.714 68.7314V55.4331H263.23V53.5705H274.471V55.4331H270.009V68.7314H267.714ZM276.62 68.7314V53.5705H278.915V68.7314H276.62ZM281.992 68.7314V53.5705H287.298C288.482 53.5705 289.464 53.7726 290.244 54.1769C291.023 54.5668 291.601 55.1082 291.976 55.8013C292.366 56.4799 292.561 57.2524 292.561 58.1188C292.561 58.9418 292.374 59.6998 291.998 60.3929C291.637 61.0715 291.067 61.613 290.287 62.0173C289.507 62.4216 288.511 62.6237 287.298 62.6237H284.288V68.7314H281.992ZM284.288 60.7394H287.19C288.273 60.7394 289.045 60.5084 289.507 60.0464C289.984 59.5699 290.222 58.9273 290.222 58.1188C290.222 57.2813 289.984 56.6315 289.507 56.1695C289.045 55.693 288.273 55.4548 287.19 55.4548H284.288V60.7394ZM294.83 68.7314V53.5705H297.126V66.9121H304.014V68.7314H294.83ZM306.485 68.7314V53.5705H316.123V55.4331H308.78V60.1547H315.473V61.974H308.78V66.8688H316.123V68.7314H306.485ZM324.315 68.7314V53.5705H329.621C330.805 53.5705 331.787 53.7726 332.567 54.1769C333.346 54.5668 333.924 55.1082 334.299 55.8013C334.689 56.4799 334.884 57.2524 334.884 58.1188C334.884 58.9418 334.696 59.6998 334.321 60.3929C333.96 61.0715 333.39 61.613 332.61 62.0173C331.83 62.4216 330.834 62.6237 329.621 62.6237H326.611V68.7314H324.315ZM326.611 60.7394H329.513C330.596 60.7394 331.368 60.5084 331.83 60.0464C332.307 59.5699 332.545 58.9273 332.545 58.1188C332.545 57.2813 332.307 56.6315 331.83 56.1695C331.368 55.693 330.596 55.4548 329.513 55.4548H326.611V60.7394ZM337.153 68.7314V53.5705H339.449V66.9121H346.337V68.7314H337.153ZM347.833 68.7314L353.421 53.5705H355.933L361.478 68.7314H359.052L357.753 65.0278H351.558L350.259 68.7314H347.833ZM352.208 63.2085H357.103L354.655 56.2994L352.208 63.2085ZM365.494 68.7314V55.4331H361.011V53.5705H372.252V55.4331H367.79V68.7314H365.494ZM374.4 68.7314V53.5705H383.908V55.4331H376.696V60.2196H382.674V62.0606H376.696V68.7314H374.4ZM393.156 68.9913C391.654 68.9913 390.34 68.6593 389.214 67.9951C388.088 67.3309 387.207 66.414 386.572 65.2444C385.936 64.0604 385.619 62.6959 385.619 61.151C385.619 59.606 385.936 58.2487 386.572 57.0792C387.207 55.8952 388.088 54.9711 389.214 54.3069C390.34 53.6427 391.654 53.3106 393.156 53.3106C394.657 53.3106 395.971 53.6427 397.098 54.3069C398.224 54.9711 399.097 55.8952 399.718 57.0792C400.354 58.2487 400.671 59.606 400.671 61.151C400.671 62.6959 400.354 64.0604 399.718 65.2444C399.097 66.414 398.224 67.3309 397.098 67.9951C395.971 68.6593 394.657 68.9913 393.156 68.9913ZM393.156 66.9338C394.195 66.9338 395.098 66.7028 395.863 66.2407C396.643 65.7787 397.249 65.1145 397.682 64.2481C398.116 63.3818 398.332 62.3494 398.332 61.151C398.332 59.9525 398.116 58.9201 397.682 58.0538C397.249 57.1874 396.643 56.5232 395.863 56.0612C395.098 55.5992 394.195 55.3681 393.156 55.3681C392.116 55.3681 391.207 55.5992 390.427 56.0612C389.647 56.5232 389.041 57.1874 388.608 58.0538C388.189 58.9201 387.979 59.9525 387.979 61.151C387.979 62.3494 388.189 63.3818 388.608 64.2481C389.041 65.1145 389.647 65.7787 390.427 66.2407C391.207 66.7028 392.116 66.9338 393.156 66.9338ZM403.229 68.7314V53.5705H408.449C409.647 53.5705 410.629 53.7726 411.394 54.1769C412.174 54.5812 412.751 55.1299 413.127 55.823C413.502 56.5016 413.69 57.2596 413.69 58.0971C413.69 59.0356 413.437 59.8875 412.932 60.6528C412.441 61.4181 411.669 61.9668 410.614 62.2989L413.842 68.7314H411.178L408.232 62.6237H405.525V68.7314H403.229ZM405.525 60.8911H408.319C409.358 60.8911 410.116 60.6384 410.593 60.133C411.084 59.6276 411.329 58.9707 411.329 58.1621C411.329 57.3535 411.091 56.711 410.614 56.2345C410.138 55.7435 409.366 55.4981 408.297 55.4981H405.525V60.8911ZM416.406 68.7314V53.5705H419.113L424.246 63.6633L429.358 53.5705H432.065V68.7314H429.769V57.534L425.134 66.5656H423.358L418.702 57.5556V68.7314H416.406ZM440.149 68.9913C439.037 68.9913 438.062 68.7964 437.225 68.4066C436.387 68.0167 435.73 67.4608 435.254 66.7389C434.792 66.0169 434.554 65.1578 434.539 64.1615H436.965C436.979 64.9701 437.261 65.6559 437.81 66.2191C438.358 66.7822 439.131 67.0637 440.127 67.0637C441.008 67.0637 441.694 66.8544 442.185 66.4356C442.69 66.0025 442.943 65.4538 442.943 64.7896C442.943 64.2553 442.82 63.8222 442.575 63.4901C442.343 63.158 442.019 62.8836 441.6 62.6671C441.196 62.4505 440.726 62.2555 440.192 62.0823C439.658 61.909 439.095 61.7213 438.503 61.5192C437.333 61.1293 436.452 60.6239 435.86 60.0031C435.283 59.3822 434.994 58.5664 434.994 57.5556C434.98 56.7037 435.175 55.9601 435.579 55.3248C435.998 54.6895 436.575 54.1986 437.311 53.852C438.062 53.4911 438.936 53.3106 439.932 53.3106C440.914 53.3106 441.773 53.4911 442.51 53.852C443.26 54.213 443.845 54.7184 444.264 55.3681C444.683 56.0034 444.899 56.7471 444.914 57.599H442.488C442.488 57.2091 442.387 56.8409 442.185 56.4944C441.983 56.1334 441.687 55.8374 441.297 55.6064C440.907 55.3753 440.43 55.2598 439.867 55.2598C439.145 55.2454 438.546 55.4259 438.07 55.8013C437.607 56.1767 437.376 56.6965 437.376 57.3607C437.376 57.9527 437.55 58.4075 437.896 58.7252C438.243 59.0429 438.719 59.31 439.326 59.5266C439.932 59.7287 440.625 59.967 441.405 60.2413C442.156 60.4868 442.827 60.7828 443.419 61.1293C444.011 61.4758 444.48 61.9307 444.827 62.4938C445.188 63.0569 445.368 63.7716 445.368 64.638C445.368 65.4032 445.174 66.118 444.784 66.7822C444.394 67.4319 443.809 67.9662 443.029 68.3849C442.25 68.7892 441.289 68.9913 440.149 68.9913Z" fill="#535B62"/>
<g clip-path="url(#clip0)">
<path d="M61.9294 27.9764H42.6397V35.0831C42.6397 40.1212 38.5407 44.2203 33.5025 44.2203C28.4644 44.2203 24.3653 40.1212 24.3653 35.0831V19.6514L16.1292 24.6007C13.6799 26.0601 12.1824 28.7124 12.1824 31.5551V37.5578L2.02996 43.4208C0.0883103 44.5376 -0.584289 47.0249 0.54517 48.9665L10.6976 66.5556C11.8144 68.4973 14.3017 69.1572 16.2434 68.0404L29.3654 60.4642H46.7007C51.1805 60.4642 54.8226 56.822 54.8226 52.3422H56.8531C59.0994 52.3422 60.9141 50.5275 60.9141 48.2813V40.1593H61.9294C63.6172 40.1593 64.9751 38.8014 64.9751 37.1136V31.0221C64.9751 29.3343 63.6172 27.9764 61.9294 27.9764ZM80.6733 23.2301L70.5209 5.64102C69.4041 3.69937 66.9167 3.03946 64.9751 4.15623L51.8531 11.7325H38.8833C37.3605 11.7325 35.8757 12.164 34.5812 12.9635L30.3299 15.6158C29.137 16.3518 28.4263 17.659 28.4263 19.0549V35.0831C28.4263 37.8877 30.6979 40.1593 33.5025 40.1593C36.3071 40.1593 38.5787 37.8877 38.5787 35.0831V23.9154H61.9294C65.8507 23.9154 69.0361 27.1007 69.0361 31.0221V34.6389L79.1885 28.7759C81.1302 27.6464 81.7901 25.1718 80.6733 23.2301Z" fill="#8D81EF"/>
</g>
<defs>
<clipPath id="clip0">
<rect width="81.2195" height="64.9756" fill="white" transform="translate(0 3.60938)"/>
</clipPath>
</defs>
</svg>
