<svg width="113" height="113" viewBox="0 0 113 113" fill="none" xmlns="http://www.w3.org/2000/svg">
<path d="M34.4283 84.192C33.3296 84.192 32.3643 83.952 31.5323 83.472C30.7109 82.9813 30.0656 82.2987 29.5963 81.424C29.1376 80.5493 28.9083 79.5413 28.9083 78.4C28.9083 77.2587 29.1376 76.256 29.5963 75.392C30.0656 74.5173 30.7109 73.8347 31.5323 73.344C32.3643 72.8533 33.3296 72.608 34.4283 72.608C35.5376 72.608 36.5029 72.8533 37.3243 73.344C38.1563 73.8347 38.8016 74.5173 39.2603 75.392C39.7189 76.256 39.9483 77.2587 39.9483 78.4C39.9483 79.5413 39.7189 80.5493 39.2603 81.424C38.8016 82.2987 38.1563 82.9813 37.3243 83.472C36.5029 83.952 35.5376 84.192 34.4283 84.192ZM34.4283 83.008C35.2496 83.008 35.9696 82.8267 36.5883 82.464C37.2176 82.0907 37.7029 81.5627 38.0443 80.88C38.3963 80.1867 38.5723 79.36 38.5723 78.4C38.5723 77.44 38.3963 76.6187 38.0443 75.936C37.7029 75.2533 37.2176 74.7307 36.5883 74.368C35.9696 73.9947 35.2496 73.808 34.4283 73.808C33.6069 73.808 32.8816 73.9947 32.2523 74.368C31.6336 74.7307 31.1483 75.2533 30.7963 75.936C30.4549 76.6187 30.2843 77.44 30.2843 78.4C30.2843 79.36 30.4549 80.1867 30.7963 80.88C31.1483 81.5627 31.6336 82.0907 32.2523 82.464C32.8816 82.8267 33.6069 83.008 34.4283 83.008ZM41.0071 84L43.7591 80.032L41.0071 76.064H42.4631L44.6871 79.344L46.9271 76.064H48.3671L45.6151 80.032L48.3671 84H46.9271L44.6871 80.72L42.4631 84H41.0071ZM50.6399 87.52L52.6079 83.232H52.1439L48.9919 76.064H50.4479L53.0719 82.24L55.8559 76.064H57.2479L52.0479 87.52H50.6399ZM61.3025 81.504C60.8545 81.504 60.4438 81.4453 60.0705 81.328L59.2705 82.08C59.3878 82.1653 59.5318 82.24 59.7025 82.304C59.8838 82.3573 60.1398 82.4107 60.4705 82.464C60.8012 82.5067 61.2652 82.5547 61.8625 82.608C62.9292 82.6827 63.6918 82.928 64.1505 83.344C64.6092 83.76 64.8385 84.304 64.8385 84.976C64.8385 85.4347 64.7105 85.872 64.4545 86.288C64.2092 86.704 63.8252 87.0453 63.3025 87.312C62.7905 87.5787 62.1292 87.712 61.3185 87.712C60.6038 87.712 59.9692 87.616 59.4145 87.424C58.8598 87.2427 58.4278 86.96 58.1185 86.576C57.8092 86.2027 57.6545 85.728 57.6545 85.152C57.6545 84.8533 57.7345 84.528 57.8945 84.176C58.0545 83.8347 58.3532 83.5093 58.7905 83.2C58.5558 83.104 58.3532 83.0027 58.1825 82.896C58.0225 82.7787 57.8732 82.6507 57.7345 82.512V82.144L59.0945 80.8C58.4652 80.2667 58.1505 79.5627 58.1505 78.688C58.1505 78.1653 58.2732 77.6907 58.5185 77.264C58.7638 76.8373 59.1212 76.5013 59.5905 76.256C60.0598 76 60.6305 75.872 61.3025 75.872C61.7612 75.872 62.1772 75.936 62.5505 76.064H65.4785V77.072L63.9905 77.136C64.2998 77.584 64.4545 78.1013 64.4545 78.688C64.4545 79.2107 64.3265 79.6853 64.0705 80.112C63.8252 80.5387 63.4678 80.88 62.9985 81.136C62.5398 81.3813 61.9745 81.504 61.3025 81.504ZM61.3025 80.4C61.8678 80.4 62.3158 80.256 62.6465 79.968C62.9878 79.6693 63.1585 79.2427 63.1585 78.688C63.1585 78.144 62.9878 77.728 62.6465 77.44C62.3158 77.1413 61.8678 76.992 61.3025 76.992C60.7265 76.992 60.2678 77.1413 59.9265 77.44C59.5958 77.728 59.4305 78.144 59.4305 78.688C59.4305 79.2427 59.5958 79.6693 59.9265 79.968C60.2678 80.256 60.7265 80.4 61.3025 80.4ZM58.9665 85.024C58.9665 85.5573 59.1905 85.952 59.6385 86.208C60.0865 86.4747 60.6465 86.608 61.3185 86.608C61.9798 86.608 62.5078 86.464 62.9025 86.176C63.3078 85.888 63.5105 85.504 63.5105 85.024C63.5105 84.6827 63.3718 84.384 63.0945 84.128C62.8172 83.8827 62.3052 83.7387 61.5585 83.696C60.9718 83.6533 60.4652 83.6 60.0385 83.536C59.6012 83.7707 59.3132 84.0213 59.1745 84.288C59.0358 84.5653 58.9665 84.8107 58.9665 85.024ZM70.2501 84.192C69.4928 84.192 68.8208 84.0213 68.2341 83.68C67.6475 83.328 67.1835 82.8427 66.8421 82.224C66.5115 81.6053 66.3461 80.8747 66.3461 80.032C66.3461 79.2 66.5115 78.4747 66.8421 77.856C67.1728 77.2267 67.6315 76.7413 68.2181 76.4C68.8155 76.048 69.5035 75.872 70.2821 75.872C71.0501 75.872 71.7115 76.048 72.2661 76.4C72.8315 76.7413 73.2635 77.1947 73.5621 77.76C73.8608 78.3253 74.0101 78.9333 74.0101 79.584C74.0101 79.7013 74.0048 79.8187 73.9941 79.936C73.9941 80.0533 73.9941 80.1867 73.9941 80.336H67.6741C67.7061 80.944 67.8448 81.4507 68.0901 81.856C68.3461 82.2507 68.6608 82.5493 69.0341 82.752C69.4181 82.9547 69.8235 83.056 70.2501 83.056C70.8048 83.056 71.2688 82.928 71.6421 82.672C72.0155 82.416 72.2875 82.0693 72.4581 81.632H73.7861C73.5728 82.368 73.1621 82.9813 72.5541 83.472C71.9568 83.952 71.1888 84.192 70.2501 84.192ZM70.2501 77.008C69.6101 77.008 69.0395 77.2053 68.5381 77.6C68.0475 77.984 67.7648 78.5493 67.6901 79.296H72.6821C72.6501 78.5813 72.4048 78.0213 71.9461 77.616C71.4875 77.2107 70.9221 77.008 70.2501 77.008ZM75.7915 84V76.064H77.0075L77.0875 77.488C77.3435 76.9867 77.7115 76.592 78.1915 76.304C78.6715 76.016 79.2155 75.872 79.8235 75.872C80.7622 75.872 81.5088 76.16 82.0635 76.736C82.6288 77.3013 82.9115 78.176 82.9115 79.36V84H81.5675V79.504C81.5675 77.8507 80.8848 77.024 79.5195 77.024C78.8368 77.024 78.2662 77.2747 77.8075 77.776C77.3595 78.2667 77.1355 78.9707 77.1355 79.888V84H75.7915Z" fill="#2D2B35"/>
<path d="M55.3195 31.35C48.4193 31.35 42.8064 36.9618 42.8064 43.8627C42.8064 50.7626 48.4193 56.3763 55.3195 56.3763C62.2186 56.3763 67.8335 50.7616 67.8335 43.8627C67.8335 36.9628 62.2186 31.35 55.3195 31.35ZM55.3195 54.1288C49.6577 54.1288 45.052 49.5233 45.052 43.8597C45.052 38.1991 49.6577 33.5935 55.3195 33.5935C60.9822 33.5935 65.588 38.2001 65.588 43.8597C65.588 49.5233 60.9822 54.1288 55.3195 54.1288Z" fill="#A6A9B4"/>
<path d="M43.3684 35.8689C45.2287 35.8689 46.7367 34.3609 46.7367 32.5006C46.7367 30.6404 45.2287 29.1324 43.3684 29.1324C41.5081 29.1324 40 30.6404 40 32.5006C40 34.3609 41.5081 35.8689 43.3684 35.8689Z" fill="#A6A9B4"/>
<path d="M66.5634 34.2829C67.9857 34.2829 69.1387 33.1299 69.1387 31.7076C69.1387 30.2854 67.9857 29.1324 66.5634 29.1324C65.1411 29.1324 63.988 30.2854 63.988 31.7076C63.988 33.1299 65.1411 34.2829 66.5634 34.2829Z" fill="#A6A9B4"/>
<path d="M70.3862 28.8524C71.2775 28.8524 72.0001 28.1299 72.0001 27.2385C72.0001 26.3472 71.2775 25.6246 70.3862 25.6246C69.4948 25.6246 68.7722 26.3472 68.7722 27.2385C68.7722 28.1299 69.4948 28.8524 70.3862 28.8524Z" fill="#A6A9B4"/>
<path d="M49.6846 29.1334C50.3823 29.1334 50.9479 28.5678 50.9479 27.8702C50.9479 27.1725 50.3823 26.6069 49.6846 26.6069C48.987 26.6069 48.4214 27.1725 48.4214 27.8702C48.4214 28.5678 48.987 29.1334 49.6846 29.1334Z" fill="#A6A9B4"/>
<path d="M51.7171 38.5717C50.151 38.5717 48.9296 39.01 48.0529 39.8867C47.1752 40.7644 46.7368 41.9877 46.7368 43.5638C46.7368 44.6905 46.958 45.629 47.4013 46.3781C47.8437 47.1303 48.4215 47.6772 49.1348 48.0239C49.8472 48.3686 50.7478 48.543 51.8357 48.543C52.9057 48.543 53.7993 48.3427 54.5166 47.9412C55.234 47.5387 55.7809 46.9759 56.1615 46.2586C56.5401 45.5353 56.7303 44.6128 56.7303 43.4841C56.7303 41.931 56.296 40.7235 55.4272 39.8628C54.5595 39.001 53.3221 38.5717 51.7171 38.5717ZM53.2235 45.6887C52.8718 46.1052 52.3767 46.3134 51.7371 46.3134C51.1134 46.3134 50.6222 46.1012 50.2606 45.6748C49.898 45.2484 49.7176 44.55 49.7176 43.5767C49.7176 42.5954 49.9 41.8911 50.2646 41.4657C50.6282 41.0403 51.1104 40.8261 51.7122 40.8261C52.3378 40.8261 52.8349 41.0363 53.2026 41.4548C53.5682 41.8732 53.7525 42.5367 53.7525 43.4452C53.7505 44.5232 53.5742 45.2723 53.2235 45.6887Z" fill="#A6A9B4"/>
<path d="M60.0119 46.6262C60.1324 46.5286 60.3705 46.3154 60.7292 46.0673C61.33 45.6429 61.7444 45.2345 61.9725 44.8818C62.1987 44.5272 62.3133 44.1456 62.3133 43.7581C62.3133 43.3925 62.2136 43.0567 62.0154 42.7628C61.8151 42.467 61.5432 42.2458 61.1984 42.1063C60.8498 41.9629 60.3656 41.8901 59.7409 41.8901C59.1422 41.8901 58.6759 41.9639 58.3362 42.1143C57.9994 42.2617 57.7354 42.4769 57.5521 42.7579C57.3668 43.0368 57.2393 43.4263 57.1696 43.9264L58.9459 44.0719C58.9947 43.7122 59.0913 43.4602 59.2358 43.3167C59.3793 43.1753 59.5636 43.1045 59.7907 43.1045C60.0089 43.1045 60.1892 43.1723 60.3337 43.3108C60.4781 43.4492 60.5489 43.6146 60.5489 43.8089C60.5489 43.9882 60.4762 44.1795 60.3317 44.3787C60.1852 44.579 59.8535 44.8709 59.3334 45.2564C58.4826 45.889 57.9038 46.3543 57.595 46.8145C57.2861 47.2788 57.1008 48.2172 57.04 48.2172H61.8978V47.0945H59.5915C59.7499 47.0955 59.8913 46.7239 60.0119 46.6262Z" fill="#A6A9B4"/>
</svg>
