<svg width="113" height="113" viewBox="0 0 113 113" fill="none" xmlns="http://www.w3.org/2000/svg">
<path d="M33.4028 84V72.8H40.2188V73.904H34.7468V77.84H39.4028V78.928H34.7468V84H33.4028ZM43.9628 84.192C43.3014 84.192 42.7521 84.08 42.3148 83.856C41.8774 83.632 41.5521 83.3333 41.3388 82.96C41.1254 82.5867 41.0188 82.1813 41.0188 81.744C41.0188 80.9333 41.3281 80.3093 41.9468 79.872C42.5654 79.4347 43.4081 79.216 44.4748 79.216H46.6188V79.12C46.6188 78.4267 46.4374 77.904 46.0748 77.552C45.7121 77.1893 45.2268 77.008 44.6188 77.008C44.0961 77.008 43.6428 77.1413 43.2588 77.408C42.8854 77.664 42.6508 78.0427 42.5548 78.544H41.1788C41.2321 77.968 41.4241 77.4827 41.7548 77.088C42.0961 76.6933 42.5174 76.3947 43.0188 76.192C43.5201 75.9787 44.0534 75.872 44.6188 75.872C45.7281 75.872 46.5601 76.1707 47.1148 76.768C47.6801 77.3547 47.9628 78.1387 47.9628 79.12V84H46.7628L46.6828 82.576C46.4588 83.024 46.1281 83.408 45.6908 83.728C45.2641 84.0373 44.6881 84.192 43.9628 84.192ZM44.1708 83.056C44.6828 83.056 45.1201 82.9227 45.4828 82.656C45.8561 82.3893 46.1388 82.0427 46.3308 81.616C46.5228 81.1893 46.6188 80.7413 46.6188 80.272V80.256H44.5868C43.7974 80.256 43.2374 80.3947 42.9068 80.672C42.5868 80.9387 42.4268 81.2747 42.4268 81.68C42.4268 82.096 42.5761 82.432 42.8748 82.688C43.1841 82.9333 43.6161 83.056 44.1708 83.056ZM54.219 84.192C53.5683 84.192 52.987 84.0587 52.475 83.792C51.9737 83.5253 51.5897 83.152 51.323 82.672L51.195 84H49.979V72.48H51.323V77.376C51.579 76.992 51.9417 76.6453 52.411 76.336C52.891 76.0267 53.499 75.872 54.235 75.872C55.0243 75.872 55.7123 76.0533 56.299 76.416C56.8857 76.7787 57.339 77.2747 57.659 77.904C57.9897 78.5333 58.155 79.248 58.155 80.048C58.155 80.848 57.9897 81.5627 57.659 82.192C57.339 82.8107 56.8803 83.3013 56.283 83.664C55.6963 84.016 55.0083 84.192 54.219 84.192ZM54.075 83.024C54.6083 83.024 55.0777 82.9013 55.483 82.656C55.8883 82.4 56.2083 82.048 56.443 81.6C56.6777 81.152 56.795 80.6293 56.795 80.032C56.795 79.4347 56.6777 78.912 56.443 78.464C56.2083 78.016 55.8883 77.6693 55.483 77.424C55.0777 77.168 54.6083 77.04 54.075 77.04C53.5417 77.04 53.0723 77.168 52.667 77.424C52.2617 77.6693 51.9417 78.016 51.707 78.464C51.4723 78.912 51.355 79.4347 51.355 80.032C51.355 80.6293 51.4723 81.152 51.707 81.6C51.9417 82.048 52.2617 82.4 52.667 82.656C53.0723 82.9013 53.5417 83.024 54.075 83.024ZM60.8419 74.304C60.5752 74.304 60.3512 74.2187 60.1699 74.048C59.9992 73.8667 59.9139 73.6427 59.9139 73.376C59.9139 73.12 59.9992 72.9067 60.1699 72.736C60.3512 72.5653 60.5752 72.48 60.8419 72.48C61.0979 72.48 61.3165 72.5653 61.4979 72.736C61.6792 72.9067 61.7699 73.12 61.7699 73.376C61.7699 73.6427 61.6792 73.8667 61.4979 74.048C61.3165 74.2187 61.0979 74.304 60.8419 74.304ZM60.1699 84V76.064H61.5139V84H60.1699ZM64.286 84V77.2H63.086V76.064H64.286V74.688C64.286 73.92 64.478 73.36 64.862 73.008C65.246 72.656 65.806 72.48 66.542 72.48H67.342V73.632H66.75C66.3447 73.632 66.0567 73.7173 65.886 73.888C65.7153 74.048 65.63 74.3253 65.63 74.72V76.064H67.582V77.2H65.63V84H64.286ZM69.182 84V72.48H70.526V84H69.182ZM75.625 84.192C74.6863 84.192 73.9397 83.9093 73.385 83.344C72.8303 82.768 72.553 81.888 72.553 80.704V76.064H73.897V80.56C73.897 82.2133 74.5743 83.04 75.929 83.04C76.6223 83.04 77.193 82.7947 77.641 82.304C78.0997 81.8027 78.329 81.0933 78.329 80.176V76.064H79.673V84H78.457L78.361 82.576C78.1157 83.0773 77.7477 83.472 77.257 83.76C76.777 84.048 76.233 84.192 75.625 84.192Z" fill="#2D2B35"/>
<g clip-path="url(#clip0)">
<path d="M71.8754 34.6235C71.5329 32.8499 70.5195 31.3142 69.023 30.3039C67.8982 29.5426 66.5905 29.1409 65.2376 29.1409C62.9848 29.1409 60.8887 30.2537 59.6282 32.1147L52.6811 42.39C51.6687 43.8875 51.3001 45.6882 51.6436 47.4639C51.986 49.2375 52.9994 50.7722 54.4959 51.7825C55.6198 52.5448 56.9285 52.9455 58.2814 52.9455C60.5332 52.9455 62.6293 51.8327 63.8887 49.9707L70.8359 39.6974C71.8503 38.1979 72.2179 36.3982 71.8754 34.6235ZM66.1727 33.2325C65.9989 33.1933 64.5396 32.9131 63.3142 34.7219L61.4722 37.4467C61.2533 37.7681 60.8988 37.9428 60.5362 37.9428C60.3182 37.9428 60.0983 37.8806 59.9054 37.748C59.3892 37.3995 59.2546 36.6985 59.6031 36.1822L61.4451 33.4585C63.6306 30.2266 66.6357 31.022 66.7622 31.0581C67.3628 31.2259 67.7134 31.8465 67.5456 32.4461C67.3799 33.0397 66.7652 33.3872 66.1727 33.2325ZM62.0226 48.7052C61.183 49.9476 59.7839 50.6908 58.2814 50.6908C57.3815 50.6908 56.5077 50.4216 55.7594 49.9155C54.7621 49.2416 54.0862 48.2191 53.8572 47.035C53.6282 45.8519 53.8752 44.6518 54.5492 43.6555L57.3212 39.5538C57.733 38.9451 58.5616 38.7845 59.1723 39.1962L64.4361 42.7546C64.7294 42.9514 64.9313 43.2588 64.9986 43.6052C65.0649 43.9537 64.9925 44.3113 64.7947 44.6046L62.0226 48.7052Z" fill="#A6A9B4"/>
<path d="M53.8793 36.0978C53.9356 32.2663 50.8763 29.1137 47.0436 29.0555C43.212 28.9992 40.0583 32.0584 40.001 35.8919C39.9438 39.7235 43.0041 42.8761 46.8367 42.9313C50.6694 42.9895 53.8221 39.9314 53.8793 36.0978ZM50.8261 37.2277C50.817 37.2277 50.806 37.2277 50.7959 37.2277L43.0262 37.0228C42.4045 37.0057 41.9123 36.4875 41.9294 35.8638C41.9465 35.2431 42.4386 34.758 43.0854 34.7671L50.8552 34.97C51.4769 34.986 51.968 35.5043 51.9519 36.1269C51.9349 36.7406 51.4347 37.2277 50.8261 37.2277Z" fill="#A6A9B4"/>
</g>
<defs>
<clipPath id="clip0">
<rect width="32" height="32" fill="white" transform="translate(40 25)"/>
</clipPath>
</defs>
</svg>
