<svg width="113" height="113" viewBox="0 0 113 113" fill="none" xmlns="http://www.w3.org/2000/svg">
<path d="M39.2486 78.192C38.1499 78.192 37.1846 77.952 36.3526 77.472C35.5312 76.9813 34.8859 76.2987 34.4166 75.424C33.9579 74.5493 33.7286 73.5413 33.7286 72.4C33.7286 71.2587 33.9579 70.256 34.4166 69.392C34.8859 68.5173 35.5312 67.8347 36.3526 67.344C37.1846 66.8533 38.1499 66.608 39.2486 66.608C40.3579 66.608 41.3232 66.8533 42.1446 67.344C42.9766 67.8347 43.6219 68.5173 44.0806 69.392C44.5392 70.256 44.7686 71.2587 44.7686 72.4C44.7686 73.5413 44.5392 74.5493 44.0806 75.424C43.6219 76.2987 42.9766 76.9813 42.1446 77.472C41.3232 77.952 40.3579 78.192 39.2486 78.192ZM39.2486 77.008C40.0699 77.008 40.7899 76.8267 41.4086 76.464C42.0379 76.0907 42.5232 75.5627 42.8646 74.88C43.2166 74.1867 43.3926 73.36 43.3926 72.4C43.3926 71.44 43.2166 70.6187 42.8646 69.936C42.5232 69.2533 42.0379 68.7307 41.4086 68.368C40.7899 67.9947 40.0699 67.808 39.2486 67.808C38.4272 67.808 37.7019 67.9947 37.0726 68.368C36.4539 68.7307 35.9686 69.2533 35.6166 69.936C35.2752 70.6187 35.1046 71.44 35.1046 72.4C35.1046 73.36 35.2752 74.1867 35.6166 74.88C35.9686 75.5627 36.4539 76.0907 37.0726 76.464C37.7019 76.8267 38.4272 77.008 39.2486 77.008ZM49.7634 78C49.0381 78 48.4674 77.824 48.0514 77.472C47.6354 77.12 47.4274 76.4853 47.4274 75.568V71.2H46.0514V70.064H47.4274L47.6034 68.16H48.7714V70.064H51.1074V71.2H48.7714V75.568C48.7714 76.0693 48.8728 76.4107 49.0754 76.592C49.2781 76.7627 49.6354 76.848 50.1474 76.848H50.9794V78H49.7634ZM52.8149 78V66.48H54.1589V71.424C54.4256 70.9333 54.8043 70.5547 55.2949 70.288C55.7856 70.0107 56.3189 69.872 56.8949 69.872C57.8123 69.872 58.5483 70.16 59.1029 70.736C59.6576 71.3013 59.9349 72.176 59.9349 73.36V78H58.6069V73.504C58.6069 71.8507 57.9403 71.024 56.6069 71.024C55.9136 71.024 55.3323 71.2747 54.8629 71.776C54.3936 72.2667 54.1589 72.9707 54.1589 73.888V78H52.8149ZM65.5392 78.192C64.7819 78.192 64.1099 78.0213 63.5232 77.68C62.9365 77.328 62.4725 76.8427 62.1312 76.224C61.8005 75.6053 61.6352 74.8747 61.6352 74.032C61.6352 73.2 61.8005 72.4747 62.1312 71.856C62.4619 71.2267 62.9205 70.7413 63.5072 70.4C64.1045 70.048 64.7925 69.872 65.5712 69.872C66.3392 69.872 67.0005 70.048 67.5552 70.4C68.1205 70.7413 68.5525 71.1947 68.8512 71.76C69.1499 72.3253 69.2992 72.9333 69.2992 73.584C69.2992 73.7013 69.2939 73.8187 69.2832 73.936C69.2832 74.0533 69.2832 74.1867 69.2832 74.336H62.9632C62.9952 74.944 63.1339 75.4507 63.3792 75.856C63.6352 76.2507 63.9499 76.5493 64.3232 76.752C64.7072 76.9547 65.1125 77.056 65.5392 77.056C66.0939 77.056 66.5579 76.928 66.9312 76.672C67.3045 76.416 67.5765 76.0693 67.7472 75.632H69.0752C68.8619 76.368 68.4512 76.9813 67.8432 77.472C67.2459 77.952 66.4779 78.192 65.5392 78.192ZM65.5392 71.008C64.8992 71.008 64.3285 71.2053 63.8272 71.6C63.3365 71.984 63.0539 72.5493 62.9792 73.296H67.9712C67.9392 72.5813 67.6939 72.0213 67.2352 71.616C66.7765 71.2107 66.2112 71.008 65.5392 71.008ZM71.0806 78V70.064H72.2966L72.4086 71.584C72.6539 71.0613 73.0272 70.6453 73.5286 70.336C74.0299 70.0267 74.6486 69.872 75.3846 69.872V71.28H75.0166C74.5472 71.28 74.1152 71.3653 73.7206 71.536C73.3259 71.696 73.0112 71.9733 72.7766 72.368C72.5419 72.7627 72.4246 73.3067 72.4246 74V78H71.0806ZM21.104 98V90.064H22.32L22.432 91.584C22.6773 91.0613 23.0507 90.6453 23.552 90.336C24.0533 90.0267 24.672 89.872 25.408 89.872V91.28H25.04C24.5707 91.28 24.1387 91.3653 23.744 91.536C23.3493 91.696 23.0347 91.9733 22.8 92.368C22.5653 92.7627 22.448 93.3067 22.448 94V98H21.104ZM30.1876 98.192C29.4303 98.192 28.7583 98.0213 28.1716 97.68C27.585 97.328 27.121 96.8427 26.7796 96.224C26.449 95.6053 26.2836 94.8747 26.2836 94.032C26.2836 93.2 26.449 92.4747 26.7796 91.856C27.1103 91.2267 27.569 90.7413 28.1556 90.4C28.753 90.048 29.441 89.872 30.2196 89.872C30.9876 89.872 31.649 90.048 32.2036 90.4C32.769 90.7413 33.201 91.1947 33.4996 91.76C33.7983 92.3253 33.9476 92.9333 33.9476 93.584C33.9476 93.7013 33.9423 93.8187 33.9316 93.936C33.9316 94.0533 33.9316 94.1867 33.9316 94.336H27.6116C27.6436 94.944 27.7823 95.4507 28.0276 95.856C28.2836 96.2507 28.5983 96.5493 28.9716 96.752C29.3556 96.9547 29.761 97.056 30.1876 97.056C30.7423 97.056 31.2063 96.928 31.5796 96.672C31.953 96.416 32.225 96.0693 32.3956 95.632H33.7236C33.5103 96.368 33.0996 96.9813 32.4916 97.472C31.8943 97.952 31.1263 98.192 30.1876 98.192ZM30.1876 91.008C29.5476 91.008 28.977 91.2053 28.4756 91.6C27.985 91.984 27.7023 92.5493 27.6276 93.296H32.6196C32.5876 92.5813 32.3423 92.0213 31.8836 91.616C31.425 91.2107 30.8596 91.008 30.1876 91.008ZM38.769 98.192C37.8197 98.192 37.0303 97.952 36.401 97.472C35.7717 96.992 35.4037 96.3413 35.297 95.52H36.673C36.7583 95.936 36.977 96.2987 37.329 96.608C37.6917 96.9067 38.177 97.056 38.785 97.056C39.3503 97.056 39.7663 96.9387 40.033 96.704C40.2997 96.4587 40.433 96.1707 40.433 95.84C40.433 95.36 40.257 95.04 39.905 94.88C39.5637 94.72 39.0783 94.576 38.449 94.448C38.0223 94.3627 37.5957 94.24 37.169 94.08C36.7423 93.92 36.385 93.696 36.097 93.408C35.809 93.1093 35.665 92.72 35.665 92.24C35.665 91.5467 35.921 90.9813 36.433 90.544C36.9557 90.096 37.6597 89.872 38.545 89.872C39.3877 89.872 40.0757 90.0853 40.609 90.512C41.153 90.928 41.4677 91.5253 41.553 92.304H40.225C40.1717 91.8987 39.9957 91.584 39.697 91.36C39.409 91.1253 39.0197 91.008 38.529 91.008C38.049 91.008 37.6757 91.1093 37.409 91.312C37.153 91.5147 37.025 91.7813 37.025 92.112C37.025 92.432 37.1903 92.6827 37.521 92.864C37.8623 93.0453 38.321 93.2 38.897 93.328C39.3877 93.4347 39.8517 93.568 40.289 93.728C40.737 93.8773 41.0997 94.1067 41.377 94.416C41.665 94.7147 41.809 95.152 41.809 95.728C41.8197 96.4427 41.5477 97.0347 40.993 97.504C40.449 97.9627 39.7077 98.192 38.769 98.192ZM47.345 98.192C46.5983 98.192 45.9263 98.0213 45.329 97.68C44.7317 97.3387 44.257 96.8587 43.905 96.24C43.5637 95.6107 43.393 94.8747 43.393 94.032C43.393 93.1893 43.569 92.4587 43.921 91.84C44.273 91.2107 44.7477 90.7253 45.345 90.384C45.953 90.0427 46.6303 89.872 47.377 89.872C48.1237 89.872 48.7957 90.0427 49.393 90.384C49.9903 90.7253 50.4597 91.2107 50.801 91.84C51.153 92.4587 51.329 93.1893 51.329 94.032C51.329 94.8747 51.153 95.6107 50.801 96.24C50.449 96.8587 49.969 97.3387 49.361 97.68C48.7637 98.0213 48.0917 98.192 47.345 98.192ZM47.345 97.04C47.8037 97.04 48.2303 96.928 48.625 96.704C49.0197 96.48 49.3397 96.144 49.585 95.696C49.8303 95.248 49.953 94.6933 49.953 94.032C49.953 93.3707 49.8303 92.816 49.585 92.368C49.3503 91.92 49.0357 91.584 48.641 91.36C48.2463 91.136 47.825 91.024 47.377 91.024C46.9183 91.024 46.4917 91.136 46.097 91.36C45.7023 91.584 45.3823 91.92 45.137 92.368C44.8917 92.816 44.769 93.3707 44.769 94.032C44.769 94.6933 44.8917 95.248 45.137 95.696C45.3823 96.144 45.697 96.48 46.081 96.704C46.4757 96.928 46.897 97.04 47.345 97.04ZM56.0938 98.192C55.1551 98.192 54.4084 97.9093 53.8538 97.344C53.2991 96.768 53.0218 95.888 53.0218 94.704V90.064H54.3658V94.56C54.3658 96.2133 55.0431 97.04 56.3978 97.04C57.0911 97.04 57.6618 96.7947 58.1098 96.304C58.5684 95.8027 58.7978 95.0933 58.7978 94.176V90.064H60.1418V98H58.9258L58.8298 96.576C58.5844 97.0773 58.2164 97.472 57.7258 97.76C57.2458 98.048 56.7018 98.192 56.0938 98.192ZM62.354 98V90.064H63.57L63.682 91.584C63.9273 91.0613 64.3007 90.6453 64.802 90.336C65.3033 90.0267 65.922 89.872 66.658 89.872V91.28H66.29C65.8207 91.28 65.3887 91.3653 64.994 91.536C64.5993 91.696 64.2847 91.9733 64.05 92.368C63.8153 92.7627 63.698 93.3067 63.698 94V98H62.354ZM71.5176 98.192C70.7603 98.192 70.0776 98.0213 69.4696 97.68C68.8723 97.328 68.3976 96.8427 68.0456 96.224C67.7043 95.5947 67.5336 94.864 67.5336 94.032C67.5336 93.2 67.7043 92.4747 68.0456 91.856C68.3976 91.2267 68.8723 90.7413 69.4696 90.4C70.0776 90.048 70.7603 89.872 71.5176 89.872C72.4563 89.872 73.2456 90.1173 73.8856 90.608C74.5363 91.0987 74.947 91.7547 75.1176 92.576H73.7416C73.635 92.0853 73.3736 91.7067 72.9576 91.44C72.5416 91.1627 72.0563 91.024 71.5016 91.024C71.0536 91.024 70.6323 91.136 70.2376 91.36C69.843 91.584 69.523 91.92 69.2776 92.368C69.0323 92.816 68.9096 93.3707 68.9096 94.032C68.9096 94.6933 69.0323 95.248 69.2776 95.696C69.523 96.144 69.843 96.4853 70.2376 96.72C70.6323 96.944 71.0536 97.056 71.5016 97.056C72.0563 97.056 72.5416 96.9227 72.9576 96.656C73.3736 96.3787 73.635 95.9893 73.7416 95.488H75.1176C74.9576 96.288 74.5523 96.9387 73.9016 97.44C73.251 97.9413 72.4563 98.192 71.5176 98.192ZM80.5626 98.192C79.8053 98.192 79.1333 98.0213 78.5466 97.68C77.96 97.328 77.496 96.8427 77.1546 96.224C76.824 95.6053 76.6586 94.8747 76.6586 94.032C76.6586 93.2 76.824 92.4747 77.1546 91.856C77.4853 91.2267 77.944 90.7413 78.5306 90.4C79.128 90.048 79.816 89.872 80.5946 89.872C81.3626 89.872 82.024 90.048 82.5786 90.4C83.144 90.7413 83.576 91.1947 83.8746 91.76C84.1733 92.3253 84.3226 92.9333 84.3226 93.584C84.3226 93.7013 84.3173 93.8187 84.3066 93.936C84.3066 94.0533 84.3066 94.1867 84.3066 94.336H77.9866C78.0186 94.944 78.1573 95.4507 78.4026 95.856C78.6586 96.2507 78.9733 96.5493 79.3466 96.752C79.7306 96.9547 80.136 97.056 80.5626 97.056C81.1173 97.056 81.5813 96.928 81.9546 96.672C82.328 96.416 82.6 96.0693 82.7706 95.632H84.0986C83.8853 96.368 83.4746 96.9813 82.8666 97.472C82.2693 97.952 81.5013 98.192 80.5626 98.192ZM80.5626 91.008C79.9226 91.008 79.352 91.2053 78.8506 91.6C78.36 91.984 78.0773 92.5493 78.0026 93.296H82.9946C82.9626 92.5813 82.7173 92.0213 82.2586 91.616C81.8 91.2107 81.2346 91.008 80.5626 91.008ZM89.144 98.192C88.1947 98.192 87.4053 97.952 86.776 97.472C86.1467 96.992 85.7787 96.3413 85.672 95.52H87.048C87.1333 95.936 87.352 96.2987 87.704 96.608C88.0667 96.9067 88.552 97.056 89.16 97.056C89.7253 97.056 90.1413 96.9387 90.408 96.704C90.6747 96.4587 90.808 96.1707 90.808 95.84C90.808 95.36 90.632 95.04 90.28 94.88C89.9387 94.72 89.4533 94.576 88.824 94.448C88.3973 94.3627 87.9707 94.24 87.544 94.08C87.1173 93.92 86.76 93.696 86.472 93.408C86.184 93.1093 86.04 92.72 86.04 92.24C86.04 91.5467 86.296 90.9813 86.808 90.544C87.3307 90.096 88.0347 89.872 88.92 89.872C89.7627 89.872 90.4507 90.0853 90.984 90.512C91.528 90.928 91.8427 91.5253 91.928 92.304H90.6C90.5467 91.8987 90.3707 91.584 90.072 91.36C89.784 91.1253 89.3947 91.008 88.904 91.008C88.424 91.008 88.0507 91.1093 87.784 91.312C87.528 91.5147 87.4 91.7813 87.4 92.112C87.4 92.432 87.5653 92.6827 87.896 92.864C88.2373 93.0453 88.696 93.2 89.272 93.328C89.7627 93.4347 90.2267 93.568 90.664 93.728C91.112 93.8773 91.4747 94.1067 91.752 94.416C92.04 94.7147 92.184 95.152 92.184 95.728C92.1947 96.4427 91.9227 97.0347 91.368 97.504C90.824 97.9627 90.0827 98.192 89.144 98.192Z" fill="#2D2B35"/>
<path d="M71.9583 37.3389C71.9858 37.0643 72 36.7848 72 36.5031C72 31.8832 68.2556 28.1366 63.6348 28.1366C60.234 28.1366 57.3069 30.169 55.9995 33.0839C54.692 30.168 51.765 28.1366 48.3642 28.1366C43.7444 28.1366 40 31.8832 40 36.5031C40 36.7848 40.0142 37.0643 40.0407 37.3389C40.0407 37.3389 40.2044 45.5763 56.1022 53.8635C71.998 45.5763 71.9583 37.3389 71.9583 37.3389ZM48.6021 29.9799C49.3616 29.9799 49.9757 30.594 49.9757 31.3525C49.9757 32.1109 49.3616 32.725 48.6021 32.725C47.8427 32.725 47.2316 32.1119 47.2316 31.3525C47.2306 30.595 47.8437 29.9799 48.6021 29.9799ZM44.3117 40.2497C44.1836 40.2853 44.0535 40.3026 43.9274 40.3026C43.3001 40.3026 42.7247 39.8867 42.5488 39.2543C42.3333 38.4867 42.2316 37.7811 42.2052 37.1386C42.0771 33.756 44.1613 32.0926 44.265 32.0103C44.8912 31.5263 45.791 31.6402 46.2729 32.2655C46.7548 32.8846 46.646 33.7702 46.0401 34.2582C45.9659 34.3202 45.062 35.1326 45.0681 36.8712C45.0712 37.3399 45.1383 37.8757 45.3061 38.4847C45.5185 39.2482 45.0722 40.0372 44.3117 40.2497Z" fill="#A6A9B4"/>
</svg>
