<svg width="113" height="113" viewBox="0 0 113 113" fill="none" xmlns="http://www.w3.org/2000/svg">
<path d="M39.2934 84V72.8H43.2294C44.0187 72.8 44.6694 72.928 45.1814 73.184C45.704 73.4293 46.0934 73.7707 46.3494 74.208C46.6054 74.6347 46.7334 75.1147 46.7334 75.648C46.7334 76.3733 46.536 76.944 46.1414 77.36C45.7574 77.776 45.2934 78.064 44.7494 78.224C45.1654 78.2987 45.544 78.464 45.8854 78.72C46.2267 78.976 46.4934 79.296 46.6854 79.68C46.888 80.064 46.9894 80.4853 46.9894 80.944C46.9894 81.5093 46.8507 82.0267 46.5734 82.496C46.296 82.9547 45.8854 83.3227 45.3414 83.6C44.7974 83.8667 44.136 84 43.3574 84H39.2934ZM40.6374 77.696H43.1334C43.848 77.696 44.3974 77.5307 44.7814 77.2C45.1654 76.8587 45.3574 76.3893 45.3574 75.792C45.3574 75.2267 45.1654 74.7733 44.7814 74.432C44.408 74.0907 43.8427 73.92 43.0854 73.92H40.6374V77.696ZM40.6374 82.88H43.2134C43.9814 82.88 44.5734 82.704 44.9894 82.352C45.4054 81.9893 45.6134 81.488 45.6134 80.848C45.6134 80.2187 45.3947 79.7173 44.9574 79.344C44.52 78.96 43.928 78.768 43.1814 78.768H40.6374V82.88ZM52.4064 84.192C51.649 84.192 50.977 84.0213 50.3904 83.68C49.8037 83.328 49.3397 82.8427 48.9984 82.224C48.6677 81.6053 48.5024 80.8747 48.5024 80.032C48.5024 79.2 48.6677 78.4747 48.9984 77.856C49.329 77.2267 49.7877 76.7413 50.3744 76.4C50.9717 76.048 51.6597 75.872 52.4384 75.872C53.2064 75.872 53.8677 76.048 54.4224 76.4C54.9877 76.7413 55.4197 77.1947 55.7184 77.76C56.017 78.3253 56.1664 78.9333 56.1664 79.584C56.1664 79.7013 56.161 79.8187 56.1504 79.936C56.1504 80.0533 56.1504 80.1867 56.1504 80.336H49.8304C49.8624 80.944 50.001 81.4507 50.2464 81.856C50.5024 82.2507 50.817 82.5493 51.1904 82.752C51.5744 82.9547 51.9797 83.056 52.4064 83.056C52.961 83.056 53.425 82.928 53.7984 82.672C54.1717 82.416 54.4437 82.0693 54.6144 81.632H55.9424C55.729 82.368 55.3184 82.9813 54.7104 83.472C54.113 83.952 53.345 84.192 52.4064 84.192ZM52.4064 77.008C51.7664 77.008 51.1957 77.2053 50.6944 77.6C50.2037 77.984 49.921 78.5493 49.8464 79.296H54.8384C54.8064 78.5813 54.561 78.0213 54.1024 77.616C53.6437 77.2107 53.0784 77.008 52.4064 77.008ZM61.5477 84.192C60.7584 84.192 60.0651 84.0107 59.4678 83.648C58.8811 83.2853 58.4224 82.7893 58.0918 82.16C57.7718 81.5307 57.6118 80.816 57.6118 80.016C57.6118 79.216 57.7771 78.5067 58.1078 77.888C58.4384 77.2587 58.8971 76.768 59.4838 76.416C60.0704 76.0533 60.7638 75.872 61.5638 75.872C62.2144 75.872 62.7904 76.0053 63.2918 76.272C63.7931 76.5387 64.1824 76.912 64.4598 77.392V72.48H65.8038V84H64.5878L64.4598 82.688C64.2038 83.072 63.8358 83.4187 63.3558 83.728C62.8758 84.0373 62.2731 84.192 61.5477 84.192ZM61.6918 83.024C62.2251 83.024 62.6944 82.9013 63.0998 82.656C63.5158 82.4 63.8358 82.048 64.0598 81.6C64.2944 81.152 64.4118 80.6293 64.4118 80.032C64.4118 79.4347 64.2944 78.912 64.0598 78.464C63.8358 78.016 63.5158 77.6693 63.0998 77.424C62.6944 77.168 62.2251 77.04 61.6918 77.04C61.1691 77.04 60.6998 77.168 60.2838 77.424C59.8784 77.6693 59.5584 78.016 59.3238 78.464C59.0998 78.912 58.9878 79.4347 58.9878 80.032C58.9878 80.6293 59.0998 81.152 59.3238 81.6C59.5584 82.048 59.8784 82.4 60.2838 82.656C60.6998 82.9013 61.1691 83.024 61.6918 83.024ZM71.0346 84.192C70.0853 84.192 69.296 83.952 68.6666 83.472C68.0373 82.992 67.6693 82.3413 67.5626 81.52H68.9386C69.024 81.936 69.2426 82.2987 69.5946 82.608C69.9573 82.9067 70.4426 83.056 71.0506 83.056C71.616 83.056 72.032 82.9387 72.2986 82.704C72.5653 82.4587 72.6986 82.1707 72.6986 81.84C72.6986 81.36 72.5226 81.04 72.1706 80.88C71.8293 80.72 71.344 80.576 70.7146 80.448C70.288 80.3627 69.8613 80.24 69.4346 80.08C69.008 79.92 68.6506 79.696 68.3626 79.408C68.0746 79.1093 67.9306 78.72 67.9306 78.24C67.9306 77.5467 68.1866 76.9813 68.6986 76.544C69.2213 76.096 69.9253 75.872 70.8106 75.872C71.6533 75.872 72.3413 76.0853 72.8746 76.512C73.4186 76.928 73.7333 77.5253 73.8186 78.304H72.4906C72.4373 77.8987 72.2613 77.584 71.9626 77.36C71.6746 77.1253 71.2853 77.008 70.7946 77.008C70.3146 77.008 69.9413 77.1093 69.6746 77.312C69.4186 77.5147 69.2906 77.7813 69.2906 78.112C69.2906 78.432 69.456 78.6827 69.7866 78.864C70.128 79.0453 70.5866 79.2 71.1626 79.328C71.6533 79.4347 72.1173 79.568 72.5546 79.728C73.0026 79.8773 73.3653 80.1067 73.6426 80.416C73.9306 80.7147 74.0746 81.152 74.0746 81.728C74.0853 82.4427 73.8133 83.0347 73.2586 83.504C72.7146 83.9627 71.9733 84.192 71.0346 84.192Z" fill="#2D2B35"/>
<path d="M50.2852 37.2146C51.5163 37.2146 52.5144 36.2166 52.5144 34.9854C52.5144 33.7543 51.5163 32.7562 50.2852 32.7562C49.054 32.7562 48.0559 33.7543 48.0559 34.9854C48.0559 36.2166 49.054 37.2146 50.2852 37.2146Z" fill="#A6A9B4"/>
<path d="M55.034 35.9574C54.536 35.9332 54.049 36.1126 53.688 36.4564C53.326 36.8002 53.1204 37.2771 53.1204 37.7762V39.8763H65.2638C65.4543 39.8763 65.6247 39.7553 65.6893 39.5739C65.7518 39.3934 65.6933 39.1928 65.5441 39.0738C64.2212 38.0192 61.141 36.2669 55.034 35.9574Z" fill="#A6A9B4"/>
<path d="M51.3993 39.4993C51.3993 38.9276 51.0021 38.4316 50.4425 38.3076L46.354 37.4022C46.1473 37.3568 45.9326 37.4072 45.7672 37.5393C45.6019 37.6724 45.5071 37.872 45.5071 38.0827V39.8108H51.3993V39.4993V39.4993Z" fill="#A6A9B4"/>
<path d="M70.533 46.3703V37.5634C70.533 36.9232 70.0147 36.404 69.3745 36.404C68.7343 36.404 68.218 36.9242 68.218 37.5634V41.067H43.785V31.7621C43.785 31.1189 43.2667 30.6027 42.6265 30.6027C41.9853 30.6027 41.468 31.1199 41.468 31.7621V46.3703C40.5989 46.8048 40 47.7041 40 48.7426C40 50.2055 41.1907 51.3963 42.6527 51.3963C44.1147 51.3963 45.3054 50.2055 45.3054 48.7426C45.3054 47.683 44.6823 46.7675 43.785 46.342V44.2449H68.215V46.342C67.3167 46.7675 66.6946 47.683 66.6946 48.7426C66.6946 50.2055 67.8843 51.3963 69.3473 51.3963C70.8103 51.3963 72 50.2055 72 48.7426C72 47.7062 71.4021 46.8048 70.533 46.3703ZM44.1449 48.7426C44.1449 49.5633 43.4765 50.2338 42.6537 50.2338C41.831 50.2338 41.1615 49.5643 41.1615 48.7426C41.1615 48.4018 41.2765 48.0873 41.469 47.8362V48.0086C41.469 48.6509 41.9863 49.1691 42.6275 49.1691C43.2678 49.1691 43.786 48.6499 43.786 48.0086V47.7727C44.0098 48.0328 44.1449 48.3726 44.1449 48.7426ZM69.3473 50.2338C68.5245 50.2338 67.8561 49.5643 67.8561 48.7426C67.8561 48.3726 67.9912 48.0328 68.215 47.7717V48.0056C68.215 48.6499 68.7333 49.1671 69.3725 49.1671C70.0147 49.1671 70.53 48.6468 70.53 48.0056V47.8362C70.7225 48.0852 70.8375 48.4018 70.8375 48.7396C70.8395 49.5643 70.17 50.2338 69.3473 50.2338Z" fill="#A6A9B4"/>
</svg>
