<svg width="113" height="113" viewBox="0 0 113 113" fill="none" xmlns="http://www.w3.org/2000/svg">
<path d="M16.4887 84V72.8H20.1047C20.9794 72.8 21.694 72.944 22.2487 73.232C22.8034 73.52 23.214 73.9147 23.4807 74.416C23.7474 74.9173 23.8807 75.472 23.8807 76.08C23.8807 76.784 23.6887 77.4187 23.3047 77.984C22.9314 78.5493 22.3447 78.9493 21.5447 79.184L23.9927 84H22.4087L20.1367 79.376H20.0407H17.8327V84H16.4887ZM17.8327 78.32H20.0087C20.8727 78.32 21.502 78.112 21.8967 77.696C22.2914 77.28 22.4887 76.7467 22.4887 76.096C22.4887 75.4347 22.2914 74.912 21.8967 74.528C21.5127 74.1333 20.878 73.936 19.9927 73.936H17.8327V78.32ZM28.9767 84.192C28.2194 84.192 27.5474 84.0213 26.9607 83.68C26.374 83.328 25.91 82.8427 25.5687 82.224C25.238 81.6053 25.0727 80.8747 25.0727 80.032C25.0727 79.2 25.238 78.4747 25.5687 77.856C25.8994 77.2267 26.358 76.7413 26.9447 76.4C27.542 76.048 28.23 75.872 29.0087 75.872C29.7767 75.872 30.438 76.048 30.9927 76.4C31.558 76.7413 31.99 77.1947 32.2887 77.76C32.5874 78.3253 32.7367 78.9333 32.7367 79.584C32.7367 79.7013 32.7314 79.8187 32.7207 79.936C32.7207 80.0533 32.7207 80.1867 32.7207 80.336H26.4007C26.4327 80.944 26.5714 81.4507 26.8167 81.856C27.0727 82.2507 27.3874 82.5493 27.7607 82.752C28.1447 82.9547 28.55 83.056 28.9767 83.056C29.5314 83.056 29.9954 82.928 30.3687 82.672C30.742 82.416 31.014 82.0693 31.1847 81.632H32.5127C32.2994 82.368 31.8887 82.9813 31.2807 83.472C30.6834 83.952 29.9154 84.192 28.9767 84.192ZM28.9767 77.008C28.3367 77.008 27.766 77.2053 27.2647 77.6C26.774 77.984 26.4914 78.5493 26.4167 79.296H31.4087C31.3767 78.5813 31.1314 78.0213 30.6727 77.616C30.214 77.2107 29.6487 77.008 28.9767 77.008ZM34.5181 84V76.064H35.7341L35.8301 77.216C36.0861 76.7893 36.4274 76.4587 36.8541 76.224C37.2807 75.9893 37.7607 75.872 38.2941 75.872C38.9234 75.872 39.4621 76 39.9101 76.256C40.3687 76.512 40.7207 76.9013 40.9661 77.424C41.2434 76.944 41.6221 76.5653 42.1021 76.288C42.5927 76.0107 43.1207 75.872 43.6861 75.872C44.6354 75.872 45.3927 76.16 45.9581 76.736C46.5234 77.3013 46.8061 78.176 46.8061 79.36V84H45.4781V79.504C45.4781 78.6827 45.3127 78.064 44.9821 77.648C44.6514 77.232 44.1767 77.024 43.5581 77.024C42.9181 77.024 42.3847 77.2747 41.9581 77.776C41.5421 78.2667 41.3341 78.9707 41.3341 79.888V84H39.9901V79.504C39.9901 78.6827 39.8247 78.064 39.4941 77.648C39.1634 77.232 38.6887 77.024 38.0701 77.024C37.4407 77.024 36.9127 77.2747 36.4861 77.776C36.0701 78.2667 35.8621 78.9707 35.8621 79.888V84H34.5181ZM52.4306 84.192C51.6412 84.192 50.9479 84.0107 50.3506 83.648C49.7639 83.2853 49.3052 82.7893 48.9746 82.16C48.6546 81.5307 48.4946 80.816 48.4946 80.016C48.4946 79.216 48.6599 78.5067 48.9906 77.888C49.3212 77.2587 49.7799 76.768 50.3666 76.416C50.9532 76.0533 51.6466 75.872 52.4466 75.872C53.0972 75.872 53.6732 76.0053 54.1746 76.272C54.6759 76.5387 55.0652 76.912 55.3426 77.392V72.48H56.6866V84H55.4706L55.3426 82.688C55.0866 83.072 54.7186 83.4187 54.2386 83.728C53.7586 84.0373 53.1559 84.192 52.4306 84.192ZM52.5746 83.024C53.1079 83.024 53.5772 82.9013 53.9826 82.656C54.3986 82.4 54.7186 82.048 54.9426 81.6C55.1772 81.152 55.2946 80.6293 55.2946 80.032C55.2946 79.4347 55.1772 78.912 54.9426 78.464C54.7186 78.016 54.3986 77.6693 53.9826 77.424C53.5772 77.168 53.1079 77.04 52.5746 77.04C52.0519 77.04 51.5826 77.168 51.1666 77.424C50.7612 77.6693 50.4412 78.016 50.2066 78.464C49.9826 78.912 49.8706 79.4347 49.8706 80.032C49.8706 80.6293 49.9826 81.152 50.2066 81.6C50.4412 82.048 50.7612 82.4 51.1666 82.656C51.5826 82.9013 52.0519 83.024 52.5746 83.024ZM62.4454 84.192C61.6881 84.192 61.0161 84.0213 60.4294 83.68C59.8428 83.328 59.3788 82.8427 59.0374 82.224C58.7068 81.6053 58.5414 80.8747 58.5414 80.032C58.5414 79.2 58.7068 78.4747 59.0374 77.856C59.3681 77.2267 59.8268 76.7413 60.4134 76.4C61.0108 76.048 61.6988 75.872 62.4774 75.872C63.2454 75.872 63.9068 76.048 64.4614 76.4C65.0268 76.7413 65.4588 77.1947 65.7574 77.76C66.0561 78.3253 66.2054 78.9333 66.2054 79.584C66.2054 79.7013 66.2001 79.8187 66.1894 79.936C66.1894 80.0533 66.1894 80.1867 66.1894 80.336H59.8694C59.9014 80.944 60.0401 81.4507 60.2854 81.856C60.5414 82.2507 60.8561 82.5493 61.2294 82.752C61.6134 82.9547 62.0188 83.056 62.4454 83.056C63.0001 83.056 63.4641 82.928 63.8374 82.672C64.2108 82.416 64.4828 82.0693 64.6534 81.632H65.9814C65.7681 82.368 65.3574 82.9813 64.7494 83.472C64.1521 83.952 63.3841 84.192 62.4454 84.192ZM62.4454 77.008C61.8054 77.008 61.2348 77.2053 60.7334 77.6C60.2428 77.984 59.9601 78.5493 59.8854 79.296H64.8774C64.8454 78.5813 64.6001 78.0213 64.1414 77.616C63.6828 77.2107 63.1174 77.008 62.4454 77.008ZM71.0268 84.192C70.0775 84.192 69.2881 83.952 68.6588 83.472C68.0295 82.992 67.6615 82.3413 67.5548 81.52H68.9308C69.0161 81.936 69.2348 82.2987 69.5868 82.608C69.9495 82.9067 70.4348 83.056 71.0428 83.056C71.6081 83.056 72.0241 82.9387 72.2908 82.704C72.5575 82.4587 72.6908 82.1707 72.6908 81.84C72.6908 81.36 72.5148 81.04 72.1628 80.88C71.8215 80.72 71.3361 80.576 70.7068 80.448C70.2801 80.3627 69.8535 80.24 69.4268 80.08C69.0001 79.92 68.6428 79.696 68.3548 79.408C68.0668 79.1093 67.9228 78.72 67.9228 78.24C67.9228 77.5467 68.1788 76.9813 68.6908 76.544C69.2135 76.096 69.9175 75.872 70.8028 75.872C71.6455 75.872 72.3335 76.0853 72.8668 76.512C73.4108 76.928 73.7255 77.5253 73.8108 78.304H72.4828C72.4295 77.8987 72.2535 77.584 71.9548 77.36C71.6668 77.1253 71.2775 77.008 70.7868 77.008C70.3068 77.008 69.9335 77.1093 69.6668 77.312C69.4108 77.5147 69.2828 77.7813 69.2828 78.112C69.2828 78.432 69.4481 78.6827 69.7788 78.864C70.1201 79.0453 70.5788 79.2 71.1548 79.328C71.6455 79.4347 72.1095 79.568 72.5468 79.728C72.9948 79.8773 73.3575 80.1067 73.6348 80.416C73.9228 80.7147 74.0668 81.152 74.0668 81.728C74.0775 82.4427 73.8055 83.0347 73.2508 83.504C72.7068 83.9627 71.9655 84.192 71.0268 84.192ZM76.8028 74.304C76.5361 74.304 76.3121 74.2187 76.1308 74.048C75.9601 73.8667 75.8748 73.6427 75.8748 73.376C75.8748 73.12 75.9601 72.9067 76.1308 72.736C76.3121 72.5653 76.5361 72.48 76.8028 72.48C77.0588 72.48 77.2775 72.5653 77.4588 72.736C77.6401 72.9067 77.7308 73.12 77.7308 73.376C77.7308 73.6427 77.6401 73.8667 77.4588 74.048C77.2775 74.2187 77.0588 74.304 76.8028 74.304ZM76.1308 84V76.064H77.4748V84H76.1308ZM82.1029 84L79.0949 76.064H80.5029L82.8869 82.704L85.2869 76.064H86.6629L83.6549 84H82.1029ZM88.9747 74.304C88.708 74.304 88.484 74.2187 88.3027 74.048C88.132 73.8667 88.0467 73.6427 88.0467 73.376C88.0467 73.12 88.132 72.9067 88.3027 72.736C88.484 72.5653 88.708 72.48 88.9747 72.48C89.2307 72.48 89.4494 72.5653 89.6307 72.736C89.812 72.9067 89.9027 73.12 89.9027 73.376C89.9027 73.6427 89.812 73.8667 89.6307 74.048C89.4494 74.2187 89.2307 74.304 88.9747 74.304ZM88.3027 84V76.064H89.6467V84H88.3027ZM91.9868 84V76.064H93.2028L93.3148 77.584C93.5601 77.0613 93.9335 76.6453 94.4348 76.336C94.9361 76.0267 95.5548 75.872 96.2908 75.872V77.28H95.9228C95.4535 77.28 95.0215 77.3653 94.6268 77.536C94.2321 77.696 93.9175 77.9733 93.6828 78.368C93.4481 78.7627 93.3308 79.3067 93.3308 80V84H91.9868Z" fill="#2D2B35"/>
<g clip-path="url(#clip0)">
<path d="M71.6594 32.7601L64.2418 25.3426C63.7864 24.8871 63.0487 24.8871 62.5943 25.3426C62.1378 25.7981 62.1378 26.5347 62.5943 26.9912L65.4783 29.8751L62.6759 32.6775L60.0297 30.0303C59.7486 29.7492 59.3667 29.59 58.9676 29.59C58.5686 29.59 58.1877 29.7482 57.9045 30.0303L45.4274 42.5085C44.6112 43.3257 44.2192 44.4745 44.3673 45.6192L44.982 50.3714L40.3416 55.0108C39.8861 55.4673 39.8861 56.2039 40.3416 56.6594C40.5693 56.8881 40.8666 57 41.1649 57C41.4632 57 41.7614 56.8871 41.9902 56.6594L46.7021 51.9474L51.409 52.6085C52.5698 52.7717 53.7388 52.3777 54.5661 51.5474L66.9727 39.0934C67.5571 38.507 67.5561 37.5577 66.9706 36.9723L64.3225 34.3241L67.1238 31.5217L70.0078 34.4067C70.2366 34.6354 70.5348 34.7493 70.8331 34.7493C71.1304 34.7493 71.4286 34.6354 71.6574 34.4077C72.1139 33.9522 72.1139 33.2156 71.6594 32.7601ZM47.4246 48.8972C47.0911 49.2307 46.552 49.2307 46.2194 48.8972C45.8859 48.5646 45.8859 48.0255 46.2194 47.693C46.552 47.3605 47.0911 47.3605 47.4246 47.693C47.7571 48.0265 47.7571 48.5646 47.4246 48.8972ZM51.8725 42.3261L48.4968 45.7018C48.2691 45.9306 47.9708 46.0434 47.6735 46.0434C47.3752 46.0434 47.077 45.9306 46.8492 45.7018C46.3938 45.2463 46.3938 44.5087 46.8492 44.0543L50.225 40.6785C50.6794 40.223 51.4181 40.223 51.8725 40.6785C52.329 41.134 52.329 41.8716 51.8725 42.3261ZM52.3885 38.8435L52.6384 38.5936L53.6692 39.6245C53.7821 39.7383 53.9312 39.7938 54.0804 39.7938C54.2305 39.7938 54.3786 39.7373 54.4925 39.6245C54.7202 39.3957 54.7202 39.0279 54.4925 38.7992L53.4637 37.7693L54.036 37.197L55.0669 38.2278C55.1808 38.3417 55.3289 38.3971 55.478 38.3971C55.6272 38.3971 55.7763 38.3407 55.8902 38.2278C56.1179 38.0001 56.1179 37.6313 55.8902 37.4035L54.8603 36.3727L55.4327 35.8003L56.4625 36.8302C56.5764 36.944 56.7255 37.0015 56.8747 37.0015C57.0238 37.0015 57.1729 36.944 57.2868 36.8302C57.5145 36.6034 57.5145 36.2336 57.2868 36.0069L56.256 34.976L56.8293 34.4027L57.8582 35.4325C57.972 35.5464 58.1222 35.6038 58.2703 35.6038C58.4205 35.6038 58.5676 35.5464 58.6825 35.4325C58.9102 35.2048 58.9102 34.837 58.6825 34.6092L57.6526 33.5804L58.3247 32.9083C58.6804 32.5526 59.2528 32.5526 59.6075 32.9083L61.0273 34.3281L54.4703 40.8851L52.3885 38.8435ZM64.0937 37.3925C64.264 37.5628 64.3597 37.7935 64.3597 38.0344C64.3607 38.2752 64.264 38.506 64.0937 38.6762L58.2149 44.5551L56.133 42.5145L62.6739 35.9736L64.0937 37.3925Z" fill="#A6A9B4"/>
</g>
<defs>
<clipPath id="clip0">
<rect width="32" height="32" fill="white" transform="translate(40 25)"/>
</clipPath>
</defs>
</svg>
