<svg width="113" height="113" viewBox="0 0 113 113" fill="none" xmlns="http://www.w3.org/2000/svg">
<path d="M38.5903 84V72.8H45.4062V73.904H39.9343V77.84H44.5903V78.928H39.9343V84H38.5903ZM50.3294 84.192C49.5827 84.192 48.9107 84.0213 48.3134 83.68C47.716 83.3387 47.2414 82.8587 46.8894 82.24C46.548 81.6107 46.3774 80.8747 46.3774 80.032C46.3774 79.1893 46.5534 78.4587 46.9054 77.84C47.2574 77.2107 47.732 76.7253 48.3294 76.384C48.9374 76.0427 49.6147 75.872 50.3614 75.872C51.108 75.872 51.78 76.0427 52.3774 76.384C52.9747 76.7253 53.444 77.2107 53.7854 77.84C54.1374 78.4587 54.3134 79.1893 54.3134 80.032C54.3134 80.8747 54.1374 81.6107 53.7854 82.24C53.4334 82.8587 52.9534 83.3387 52.3454 83.68C51.748 84.0213 51.076 84.192 50.3294 84.192ZM50.3294 83.04C50.788 83.04 51.2147 82.928 51.6094 82.704C52.004 82.48 52.324 82.144 52.5694 81.696C52.8147 81.248 52.9374 80.6933 52.9374 80.032C52.9374 79.3707 52.8147 78.816 52.5694 78.368C52.3347 77.92 52.02 77.584 51.6254 77.36C51.2307 77.136 50.8094 77.024 50.3614 77.024C49.9027 77.024 49.476 77.136 49.0814 77.36C48.6867 77.584 48.3667 77.92 48.1214 78.368C47.876 78.816 47.7534 79.3707 47.7534 80.032C47.7534 80.6933 47.876 81.248 48.1214 81.696C48.3667 82.144 48.6814 82.48 49.0654 82.704C49.46 82.928 49.8814 83.04 50.3294 83.04ZM59.7981 84.192C59.0515 84.192 58.3795 84.0213 57.7821 83.68C57.1848 83.3387 56.7101 82.8587 56.3581 82.24C56.0168 81.6107 55.8461 80.8747 55.8461 80.032C55.8461 79.1893 56.0221 78.4587 56.3741 77.84C56.7261 77.2107 57.2008 76.7253 57.7981 76.384C58.4061 76.0427 59.0835 75.872 59.8301 75.872C60.5768 75.872 61.2488 76.0427 61.8461 76.384C62.4435 76.7253 62.9128 77.2107 63.2541 77.84C63.6061 78.4587 63.7821 79.1893 63.7821 80.032C63.7821 80.8747 63.6061 81.6107 63.2541 82.24C62.9021 82.8587 62.4221 83.3387 61.8141 83.68C61.2168 84.0213 60.5448 84.192 59.7981 84.192ZM59.7981 83.04C60.2568 83.04 60.6835 82.928 61.0781 82.704C61.4728 82.48 61.7928 82.144 62.0381 81.696C62.2835 81.248 62.4061 80.6933 62.4061 80.032C62.4061 79.3707 62.2835 78.816 62.0381 78.368C61.8035 77.92 61.4888 77.584 61.0941 77.36C60.6995 77.136 60.2781 77.024 59.8301 77.024C59.3715 77.024 58.9448 77.136 58.5501 77.36C58.1555 77.584 57.8355 77.92 57.5901 78.368C57.3448 78.816 57.2221 79.3707 57.2221 80.032C57.2221 80.6933 57.3448 81.248 57.5901 81.696C57.8355 82.144 58.1501 82.48 58.5341 82.704C58.9288 82.928 59.3501 83.04 59.7981 83.04ZM69.2509 84.192C68.4615 84.192 67.7682 84.0107 67.1709 83.648C66.5842 83.2853 66.1255 82.7893 65.7949 82.16C65.4749 81.5307 65.3149 80.816 65.3149 80.016C65.3149 79.216 65.4802 78.5067 65.8109 77.888C66.1415 77.2587 66.6002 76.768 67.1869 76.416C67.7735 76.0533 68.4669 75.872 69.2669 75.872C69.9175 75.872 70.4935 76.0053 70.9949 76.272C71.4962 76.5387 71.8855 76.912 72.1629 77.392V72.48H73.5069V84H72.2909L72.1629 82.688C71.9069 83.072 71.5389 83.4187 71.0589 83.728C70.5789 84.0373 69.9762 84.192 69.2509 84.192ZM69.3949 83.024C69.9282 83.024 70.3975 82.9013 70.8029 82.656C71.2189 82.4 71.5389 82.048 71.7629 81.6C71.9975 81.152 72.1149 80.6293 72.1149 80.032C72.1149 79.4347 71.9975 78.912 71.7629 78.464C71.5389 78.016 71.2189 77.6693 70.8029 77.424C70.3975 77.168 69.9282 77.04 69.3949 77.04C68.8722 77.04 68.4029 77.168 67.9869 77.424C67.5815 77.6693 67.2615 78.016 67.0269 78.464C66.8029 78.912 66.6909 79.4347 66.6909 80.032C66.6909 80.6293 66.8029 81.152 67.0269 81.6C67.2615 82.048 67.5815 82.4 67.9869 82.656C68.4029 82.9013 68.8722 83.024 69.3949 83.024Z" fill="#2D2B35"/>
<path d="M49.7866 36.096C49.8906 36.2 50.0271 36.2522 50.1637 36.2522C50.3002 36.2522 50.4367 36.2 50.5407 36.096C50.7493 35.8874 50.7493 35.5504 50.5407 35.3418C49.9994 34.8 49.9994 33.9189 50.5407 33.377C51.0047 32.913 51.2607 32.2965 51.2607 31.6405C51.2607 30.9845 51.0053 30.368 50.5407 29.904C50.3322 29.6954 49.9951 29.6954 49.7866 29.904C49.5781 30.1125 49.5781 30.4496 49.7866 30.6581C50.049 30.9205 50.1941 31.2693 50.1941 31.6405C50.1941 32.0117 50.0495 32.3605 49.7866 32.6229C48.8293 33.5802 48.8293 35.1386 49.7866 36.096Z" fill="#A6A9B4"/>
<path d="M61.52 36.096C61.624 36.2 61.7605 36.2522 61.8971 36.2522C62.0336 36.2522 62.1701 36.2 62.2741 36.096C62.4827 35.8874 62.4827 35.5504 62.2741 35.3418C61.7328 34.8 61.7328 33.9189 62.2741 33.377C62.7381 32.913 62.9941 32.2965 62.9941 31.6405C62.9941 30.9845 62.7387 30.368 62.2741 29.904C62.0656 29.6954 61.7285 29.6954 61.52 29.904C61.3115 30.1125 61.3115 30.4496 61.52 30.6581C61.7824 30.9205 61.9275 31.2693 61.9275 31.6405C61.9275 32.0117 61.7829 32.3605 61.52 32.6229C60.5627 33.5802 60.5627 35.1386 61.52 36.096Z" fill="#A6A9B4"/>
<path d="M55.6533 32.896C55.7573 33 55.8938 33.0523 56.0304 33.0523C56.1669 33.0523 56.3034 33 56.4074 32.896C56.616 32.6875 56.616 32.3504 56.4074 32.1419C55.8661 31.6 55.8661 30.7189 56.4074 30.1771C56.8714 29.7131 57.1274 29.0965 57.1274 28.4405C57.1274 27.7845 56.872 27.168 56.4074 26.704C56.1989 26.4955 55.8618 26.4955 55.6533 26.704C55.4448 26.9125 55.4448 27.2496 55.6533 27.4581C55.9157 27.7205 56.0608 28.0693 56.0608 28.4405C56.0608 28.8117 55.9162 29.1605 55.6533 29.4229C54.696 30.3803 54.696 31.9387 55.6533 32.896Z" fill="#A6A9B4"/>
<path d="M69.6661 48.3179C68.6997 42.6427 64.2757 38.1333 58.6437 37.0411C58.6528 36.9557 58.6667 36.8699 58.6667 36.7851C58.6667 35.3147 57.4704 34.1184 56 34.1184C54.5296 34.1184 53.3333 35.3147 53.3333 36.7851C53.3333 36.8699 53.3467 36.9557 53.3563 37.0411C47.7243 38.1333 43.3003 42.6427 42.3339 48.3179C41.2192 48.9488 40 49.8773 40 50.9189C40 53.6309 48.2731 55.4523 56 55.4523C63.7269 55.4523 72 53.6309 72 50.9189C72 49.8773 70.7808 48.9488 69.6661 48.3179ZM54.4032 36.8773C54.4011 36.8464 54.4 36.8155 54.4 36.7856C54.4 35.9035 55.1179 35.1856 56 35.1856C56.8821 35.1856 57.6 35.9035 57.6 36.7856C57.6 36.816 57.5989 36.8464 57.5968 36.8773C57.5717 36.8747 57.5467 36.8736 57.5221 36.8709C57.3387 36.8507 57.1541 36.8363 56.9685 36.8235C56.9003 36.8187 56.8325 36.8117 56.7643 36.808C56.5115 36.7941 56.2571 36.7861 56.0005 36.7861C55.744 36.7861 55.4896 36.7941 55.2368 36.808C55.1685 36.8117 55.1008 36.8187 55.0325 36.8235C54.8469 36.8363 54.6624 36.8512 54.4789 36.8709C54.4533 36.8736 54.4283 36.8741 54.4032 36.8773ZM53.4005 39.2053C54.2443 39.0155 55.1163 38.9189 55.9925 38.9189C55.9947 38.9189 55.9973 38.9189 56 38.9189C56.2944 38.9189 56.5333 39.1579 56.5333 39.4528C56.5333 39.7472 56.2944 39.9856 56 39.9856C55.9979 39.9856 55.9952 39.9856 55.9931 39.9856C55.1952 39.9856 54.4027 40.0731 53.6352 40.2459C53.5957 40.2549 53.5563 40.2587 53.5173 40.2587C53.2736 40.2587 53.0533 40.0907 52.9973 39.8427C52.9328 39.5552 53.1131 39.2699 53.4005 39.2053ZM50.2133 40.4651C50.4672 40.3152 50.7936 40.3989 50.944 40.6523C51.0944 40.9061 51.0107 41.2331 50.7568 41.3829C48.2432 42.872 46.4117 45.5755 45.8576 48.6149C45.8107 48.872 45.5861 49.0523 45.3333 49.0523C45.3013 49.0523 45.2693 49.0496 45.2373 49.0432C44.9477 48.9904 44.7552 48.7131 44.808 48.4229C45.4176 45.0843 47.4384 42.1093 50.2133 40.4651ZM56 54.3856C46.8821 54.3856 41.0667 52.1088 41.0667 50.9189C41.0667 50.7147 41.3195 50.2645 42.1675 49.6773C42.1653 49.7077 42.1664 49.7376 42.1643 49.768C42.1461 50.0603 42.1333 50.3547 42.1333 50.6523V51.0725L42.5424 51.1712C46.9445 52.2277 51.4725 52.7632 56 52.7632C60.5275 52.7632 65.0555 52.2277 69.4576 51.1712L69.8667 51.0725V50.6523C69.8667 50.3547 69.8539 50.0608 69.8357 49.768C69.8336 49.7376 69.8347 49.7077 69.8325 49.6773C70.6805 50.2645 70.9333 50.7147 70.9333 50.9189C70.9333 52.1088 65.1179 54.3856 56 54.3856Z" fill="#A6A9B4"/>
</svg>
