<svg width="113" height="113" viewBox="0 0 113 113" fill="none" xmlns="http://www.w3.org/2000/svg">
<path d="M44.3168 84V72.8H45.6608V84H44.3168ZM52.9476 84.192C51.8489 84.192 50.8996 83.952 50.0996 83.472C49.3102 82.9813 48.6969 82.304 48.2596 81.44C47.8222 80.5653 47.6036 79.552 47.6036 78.4C47.6036 77.2587 47.8222 76.256 48.2596 75.392C48.6969 74.5173 49.3102 73.8347 50.0996 73.344C50.8996 72.8533 51.8489 72.608 52.9476 72.608C54.2276 72.608 55.2676 72.9173 56.0676 73.536C56.8782 74.144 57.3956 74.9973 57.6196 76.096H56.1316C55.9609 75.4027 55.6089 74.848 55.0756 74.432C54.5529 74.0053 53.8436 73.792 52.9476 73.792C52.1476 73.792 51.4489 73.9787 50.8516 74.352C50.2542 74.7147 49.7902 75.2427 49.4596 75.936C49.1396 76.6187 48.9796 77.44 48.9796 78.4C48.9796 79.36 49.1396 80.1867 49.4596 80.88C49.7902 81.5627 50.2542 82.0907 50.8516 82.464C51.4489 82.8267 52.1476 83.008 52.9476 83.008C53.8436 83.008 54.5529 82.8053 55.0756 82.4C55.6089 81.984 55.9609 81.4347 56.1316 80.752H57.6196C57.3956 81.8293 56.8782 82.672 56.0676 83.28C55.2676 83.888 54.2276 84.192 52.9476 84.192ZM63.5992 84.192C62.8312 84.192 62.1325 84.0427 61.5032 83.744C60.8845 83.4347 60.3885 82.96 60.0152 82.32C59.6419 81.68 59.4552 80.864 59.4552 79.872V72.8H60.7992V79.888C60.7992 80.976 61.0605 81.7653 61.5832 82.256C62.1059 82.7467 62.7885 82.992 63.6312 82.992C64.4739 82.992 65.1512 82.7467 65.6632 82.256C66.1752 81.7653 66.4312 80.976 66.4312 79.888V72.8H67.7752V79.872C67.7752 80.864 67.5885 81.68 67.2152 82.32C66.8419 82.96 66.3405 83.4347 65.7112 83.744C65.0819 84.0427 64.3779 84.192 63.5992 84.192Z" fill="#2D2B35"/>
<path d="M58.8109 48.4337C58.6272 48.9129 58.148 49.2115 57.6378 49.1576C57.1266 49.1076 56.7133 48.7223 56.6254 48.2191L55.7019 42.8356L55.623 43.3079V43.3099V43.3089L54.6625 48.5845C54.5657 49.1226 54.0934 49.52 53.5483 49.52C53.5443 49.52 53.5393 49.52 53.5353 49.52C52.9942 49.52 52.5289 49.1436 52.4201 48.6124L51.5205 44.2234L51.2919 44.5978C51.0822 44.9303 50.7178 45.139 50.3255 45.139H43.9985C46.3288 47.7408 50.0169 50.7979 55.8536 53.8451C55.8626 53.8631 55.8766 53.87 55.8976 53.8681C61.7612 50.8159 65.664 47.7488 68.0013 45.139H60.0739L58.8109 48.4337Z" fill="#A6A9B4"/>
<path d="M71.9581 37.3424V37.3324C71.985 37.0568 72 36.7793 72 36.4977C72 31.8771 68.256 28.134 63.6353 28.134C60.2358 28.134 57.3074 30.1658 56.0005 33.0811C54.6926 30.1658 51.7662 28.135 48.3647 28.135C43.745 28.134 40 31.8791 40 36.4987C40 36.7813 40.014 37.0608 40.0419 37.3364L40 37.3513C40 37.3513 40 39.5728 42.2205 42.8725H49.6936L51.0983 40.6101C51.3459 40.2168 51.8112 40.0081 52.2655 40.087C52.7247 40.1698 53.0861 40.5213 53.18 40.9766L53.4635 42.3644L54.5658 36.2601C54.6706 35.8897 54.8354 35.2657 55.3695 35.2128C55.3705 35.2098 55.3705 35.2068 55.3715 35.2048C55.4803 35.1688 55.5961 35.1429 55.715 35.1429C55.717 35.1429 55.718 35.1429 55.7189 35.1429C56.1343 35.1429 56.6135 35.4005 56.7952 35.9316H56.7932C56.8132 35.9865 56.8292 36.0414 56.8382 36.1013L58.1621 43.7461L58.225 43.5924C58.3927 43.1521 58.817 42.8725 59.2883 42.8725H69.7775C71.999 39.5728 71.999 37.3513 71.999 37.3513L71.9581 37.3424ZM48.6023 29.9781C49.3601 29.9781 49.9751 30.5911 49.9751 31.3499C49.9751 32.1077 49.3601 32.7217 48.6023 32.7217C47.8445 32.7217 47.2315 32.1077 47.2315 31.3499C47.2315 30.5911 47.8445 29.9781 48.6023 29.9781ZM45.026 38.5614C45.1937 39.1674 44.8393 39.7954 44.2343 39.9632C44.1324 39.9921 44.0296 40.0051 43.9287 40.0051C43.4305 40.0051 42.9733 39.6756 42.8315 39.1714C42.6228 38.4196 42.523 37.7327 42.498 37.1067C42.3812 33.8859 44.3461 32.3164 44.4459 32.2385C44.9431 31.8551 45.657 31.943 46.0434 32.4422C46.4258 32.9354 46.3399 33.6433 45.8527 34.0316C45.7778 34.0935 44.7554 34.9841 44.7744 36.8971L44.7814 36.8961L44.7744 36.8971C44.7794 37.3843 44.8523 37.9374 45.026 38.5614Z" fill="#A6A9B4"/>
</svg>
