<svg width="113" height="113" viewBox="0 0 113 113" fill="none" xmlns="http://www.w3.org/2000/svg">
<path d="M31.4653 84V72.8H35.1453C36.0199 72.8 36.7399 72.944 37.3053 73.232C37.8706 73.52 38.2866 73.9093 38.5533 74.4C38.8306 74.8907 38.9693 75.4453 38.9693 76.064C38.9693 76.672 38.8359 77.2213 38.5693 77.712C38.3026 78.2027 37.8866 78.5973 37.3213 78.896C36.7559 79.184 36.0306 79.328 35.1453 79.328H32.8093V84H31.4653ZM32.8093 78.192H35.1133C36.0093 78.192 36.6439 78.0053 37.0173 77.632C37.4013 77.248 37.5933 76.7253 37.5933 76.064C37.5933 75.392 37.4013 74.8693 37.0173 74.496C36.6439 74.112 36.0093 73.92 35.1133 73.92H32.8093V78.192ZM40.6509 84V72.48H41.9949V84H40.6509ZM46.8378 84.192C46.1764 84.192 45.6271 84.08 45.1898 83.856C44.7524 83.632 44.4271 83.3333 44.2138 82.96C44.0004 82.5867 43.8938 82.1813 43.8938 81.744C43.8938 80.9333 44.2031 80.3093 44.8218 79.872C45.4404 79.4347 46.2831 79.216 47.3498 79.216H49.4938V79.12C49.4938 78.4267 49.3124 77.904 48.9498 77.552C48.5871 77.1893 48.1018 77.008 47.4938 77.008C46.9711 77.008 46.5178 77.1413 46.1338 77.408C45.7604 77.664 45.5258 78.0427 45.4298 78.544H44.0538C44.1071 77.968 44.2991 77.4827 44.6298 77.088C44.9711 76.6933 45.3924 76.3947 45.8938 76.192C46.3951 75.9787 46.9284 75.872 47.4938 75.872C48.6031 75.872 49.4351 76.1707 49.9898 76.768C50.5551 77.3547 50.8378 78.1387 50.8378 79.12V84H49.6378L49.5578 82.576C49.3338 83.024 49.0031 83.408 48.5658 83.728C48.1391 84.0373 47.5631 84.192 46.8378 84.192ZM47.0458 83.056C47.5578 83.056 47.9951 82.9227 48.3578 82.656C48.7311 82.3893 49.0138 82.0427 49.2058 81.616C49.3978 81.1893 49.4938 80.7413 49.4938 80.272V80.256H47.4618C46.6724 80.256 46.1124 80.3947 45.7818 80.672C45.4618 80.9387 45.3018 81.2747 45.3018 81.68C45.3018 82.096 45.4511 82.432 45.7498 82.688C46.0591 82.9333 46.4911 83.056 47.0458 83.056ZM55.894 84.192C54.9447 84.192 54.1553 83.952 53.526 83.472C52.8967 82.992 52.5287 82.3413 52.422 81.52H53.798C53.8833 81.936 54.102 82.2987 54.454 82.608C54.8167 82.9067 55.302 83.056 55.91 83.056C56.4753 83.056 56.8913 82.9387 57.158 82.704C57.4247 82.4587 57.558 82.1707 57.558 81.84C57.558 81.36 57.382 81.04 57.03 80.88C56.6887 80.72 56.2033 80.576 55.574 80.448C55.1473 80.3627 54.7207 80.24 54.294 80.08C53.8673 79.92 53.51 79.696 53.222 79.408C52.934 79.1093 52.79 78.72 52.79 78.24C52.79 77.5467 53.046 76.9813 53.558 76.544C54.0807 76.096 54.7847 75.872 55.67 75.872C56.5127 75.872 57.2007 76.0853 57.734 76.512C58.278 76.928 58.5927 77.5253 58.678 78.304H57.35C57.2967 77.8987 57.1207 77.584 56.822 77.36C56.534 77.1253 56.1447 77.008 55.654 77.008C55.174 77.008 54.8007 77.1093 54.534 77.312C54.278 77.5147 54.15 77.7813 54.15 78.112C54.15 78.432 54.3153 78.6827 54.646 78.864C54.9873 79.0453 55.446 79.2 56.022 79.328C56.5127 79.4347 56.9767 79.568 57.414 79.728C57.862 79.8773 58.2247 80.1067 58.502 80.416C58.79 80.7147 58.934 81.152 58.934 81.728C58.9447 82.4427 58.6727 83.0347 58.118 83.504C57.574 83.9627 56.8327 84.192 55.894 84.192ZM60.854 84V76.064H62.07L62.166 77.216C62.422 76.7893 62.7633 76.4587 63.19 76.224C63.6167 75.9893 64.0967 75.872 64.63 75.872C65.2593 75.872 65.798 76 66.246 76.256C66.7047 76.512 67.0567 76.9013 67.302 77.424C67.5793 76.944 67.958 76.5653 68.438 76.288C68.9287 76.0107 69.4567 75.872 70.022 75.872C70.9713 75.872 71.7287 76.16 72.294 76.736C72.8593 77.3013 73.142 78.176 73.142 79.36V84H71.814V79.504C71.814 78.6827 71.6487 78.064 71.318 77.648C70.9873 77.232 70.5127 77.024 69.894 77.024C69.254 77.024 68.7207 77.2747 68.294 77.776C67.878 78.2667 67.67 78.9707 67.67 79.888V84H66.326V79.504C66.326 78.6827 66.1607 78.064 65.83 77.648C65.4993 77.232 65.0247 77.024 64.406 77.024C63.7767 77.024 63.2487 77.2747 62.822 77.776C62.406 78.2667 62.198 78.9707 62.198 79.888V84H60.854ZM77.8065 84.192C77.1452 84.192 76.5958 84.08 76.1585 83.856C75.7212 83.632 75.3958 83.3333 75.1825 82.96C74.9692 82.5867 74.8625 82.1813 74.8625 81.744C74.8625 80.9333 75.1718 80.3093 75.7905 79.872C76.4092 79.4347 77.2518 79.216 78.3185 79.216H80.4625V79.12C80.4625 78.4267 80.2812 77.904 79.9185 77.552C79.5558 77.1893 79.0705 77.008 78.4625 77.008C77.9398 77.008 77.4865 77.1413 77.1025 77.408C76.7292 77.664 76.4945 78.0427 76.3985 78.544H75.0225C75.0758 77.968 75.2678 77.4827 75.5985 77.088C75.9398 76.6933 76.3612 76.3947 76.8625 76.192C77.3638 75.9787 77.8972 75.872 78.4625 75.872C79.5718 75.872 80.4038 76.1707 80.9585 76.768C81.5238 77.3547 81.8065 78.1387 81.8065 79.12V84H80.6065L80.5265 82.576C80.3025 83.024 79.9718 83.408 79.5345 83.728C79.1078 84.0373 78.5318 84.192 77.8065 84.192ZM78.0145 83.056C78.5265 83.056 78.9638 82.9227 79.3265 82.656C79.6998 82.3893 79.9825 82.0427 80.1745 81.616C80.3665 81.1893 80.4625 80.7413 80.4625 80.272V80.256H78.4305C77.6412 80.256 77.0812 80.3947 76.7505 80.672C76.4305 80.9387 76.2705 81.2747 76.2705 81.68C76.2705 82.096 76.4198 82.432 76.7185 82.688C77.0278 82.9333 77.4598 83.056 78.0145 83.056Z" fill="#2D2B35"/>
<path d="M57.1852 25.6098C56.9126 25.2276 56.4699 25 56 25C55.5291 25 55.0874 25.2266 54.8128 25.6098C51.8807 29.702 44.5349 40.4654 44.5349 45.5349C44.5349 51.8668 49.6671 57 55.999 57C62.332 57 67.4651 51.8668 67.4651 45.5349C67.4662 40.4654 60.1172 29.702 57.1852 25.6098ZM51.9737 52.0245C51.6604 52.3972 51.2093 52.5904 50.7551 52.5904C50.3949 52.5904 50.0294 52.4672 49.7308 52.2166C45.2105 48.4095 46.7705 42.7866 46.8394 42.5475C47.0838 41.7027 47.9598 41.2182 48.8087 41.4594C49.6524 41.7006 50.139 42.5819 49.8999 43.4235C49.8508 43.6063 48.8745 47.3319 51.7836 49.7816C52.454 50.3475 52.5407 51.351 51.9737 52.0245ZM55.1031 55.1873C54.1706 55.1873 53.4115 54.4282 53.4115 53.4957C53.4115 52.5601 54.1706 51.8031 55.1031 51.8031C56.0387 51.8031 56.7947 52.5612 56.7947 53.4957C56.7947 54.4303 56.0376 55.1873 55.1031 55.1873Z" fill="#A6A9B4"/>
</svg>
