<svg width="113" height="113" viewBox="0 0 113 113" fill="none" xmlns="http://www.w3.org/2000/svg">
<path d="M16.9486 84V73.904H13.6046V72.8H21.6366V73.904H18.2926V84H16.9486ZM25.3763 84.192C24.6296 84.192 23.9576 84.0213 23.3603 83.68C22.7629 83.3387 22.2883 82.8587 21.9363 82.24C21.5949 81.6107 21.4243 80.8747 21.4243 80.032C21.4243 79.1893 21.6003 78.4587 21.9523 77.84C22.3043 77.2107 22.7789 76.7253 23.3763 76.384C23.9843 76.0427 24.6616 75.872 25.4083 75.872C26.1549 75.872 26.8269 76.0427 27.4243 76.384C28.0216 76.7253 28.4909 77.2107 28.8323 77.84C29.1843 78.4587 29.3603 79.1893 29.3603 80.032C29.3603 80.8747 29.1843 81.6107 28.8323 82.24C28.4803 82.8587 28.0003 83.3387 27.3923 83.68C26.7949 84.0213 26.1229 84.192 25.3763 84.192ZM25.3763 83.04C25.8349 83.04 26.2616 82.928 26.6563 82.704C27.0509 82.48 27.3709 82.144 27.6163 81.696C27.8616 81.248 27.9843 80.6933 27.9843 80.032C27.9843 79.3707 27.8616 78.816 27.6163 78.368C27.3816 77.92 27.0669 77.584 26.6723 77.36C26.2776 77.136 25.8563 77.024 25.4083 77.024C24.9496 77.024 24.5229 77.136 24.1283 77.36C23.7336 77.584 23.4136 77.92 23.1683 78.368C22.9229 78.816 22.8003 79.3707 22.8003 80.032C22.8003 80.6933 22.9229 81.248 23.1683 81.696C23.4136 82.144 23.7283 82.48 24.1123 82.704C24.5069 82.928 24.9283 83.04 25.3763 83.04ZM34.877 84.192C34.1197 84.192 33.437 84.0213 32.829 83.68C32.2317 83.328 31.757 82.8427 31.405 82.224C31.0637 81.5947 30.893 80.864 30.893 80.032C30.893 79.2 31.0637 78.4747 31.405 77.856C31.757 77.2267 32.2317 76.7413 32.829 76.4C33.437 76.048 34.1197 75.872 34.877 75.872C35.8157 75.872 36.605 76.1173 37.245 76.608C37.8957 77.0987 38.3063 77.7547 38.477 78.576H37.101C36.9943 78.0853 36.733 77.7067 36.317 77.44C35.901 77.1627 35.4157 77.024 34.861 77.024C34.413 77.024 33.9917 77.136 33.597 77.36C33.2023 77.584 32.8823 77.92 32.637 78.368C32.3917 78.816 32.269 79.3707 32.269 80.032C32.269 80.6933 32.3917 81.248 32.637 81.696C32.8823 82.144 33.2023 82.4853 33.597 82.72C33.9917 82.944 34.413 83.056 34.861 83.056C35.4157 83.056 35.901 82.9227 36.317 82.656C36.733 82.3787 36.9943 81.9893 37.101 81.488H38.477C38.317 82.288 37.9117 82.9387 37.261 83.44C36.6103 83.9413 35.8157 84.192 34.877 84.192ZM41.17 74.304C40.9033 74.304 40.6793 74.2187 40.498 74.048C40.3273 73.8667 40.242 73.6427 40.242 73.376C40.242 73.12 40.3273 72.9067 40.498 72.736C40.6793 72.5653 40.9033 72.48 41.17 72.48C41.426 72.48 41.6447 72.5653 41.826 72.736C42.0073 72.9067 42.098 73.12 42.098 73.376C42.098 73.6427 42.0073 73.8667 41.826 74.048C41.6447 74.2187 41.426 74.304 41.17 74.304ZM40.498 84V76.064H41.842V84H40.498ZM44.1821 84V72.48H45.5261V84H44.1821ZM48.545 74.304C48.2783 74.304 48.0543 74.2187 47.873 74.048C47.7023 73.8667 47.617 73.6427 47.617 73.376C47.617 73.12 47.7023 72.9067 47.873 72.736C48.0543 72.5653 48.2783 72.48 48.545 72.48C48.801 72.48 49.0197 72.5653 49.201 72.736C49.3823 72.9067 49.473 73.12 49.473 73.376C49.473 73.6427 49.3823 73.8667 49.201 74.048C49.0197 74.2187 48.801 74.304 48.545 74.304ZM47.873 84V76.064H49.217V84H47.873ZM51.0131 84V82.896L55.4291 77.184H51.0931V76.064H56.9331V77.168L52.5171 82.88H57.0131V84H51.0131ZM61.6875 84.192C60.7488 84.192 60.0022 83.9093 59.4475 83.344C58.8928 82.768 58.6155 81.888 58.6155 80.704V76.064H59.9595V80.56C59.9595 82.2133 60.6368 83.04 61.9915 83.04C62.6848 83.04 63.2555 82.7947 63.7035 82.304C64.1622 81.8027 64.3915 81.0933 64.3915 80.176V76.064H65.7355V84H64.5195L64.4235 82.576C64.1782 83.0773 63.8102 83.472 63.3195 83.76C62.8395 84.048 62.2955 84.192 61.6875 84.192ZM67.9478 84V76.064H69.1638L69.2598 77.216C69.5158 76.7893 69.8571 76.4587 70.2838 76.224C70.7104 75.9893 71.1904 75.872 71.7238 75.872C72.3531 75.872 72.8918 76 73.3398 76.256C73.7984 76.512 74.1504 76.9013 74.3958 77.424C74.6731 76.944 75.0518 76.5653 75.5318 76.288C76.0224 76.0107 76.5504 75.872 77.1158 75.872C78.0651 75.872 78.8224 76.16 79.3878 76.736C79.9531 77.3013 80.2358 78.176 80.2358 79.36V84H78.9078V79.504C78.9078 78.6827 78.7424 78.064 78.4118 77.648C78.0811 77.232 77.6064 77.024 76.9878 77.024C76.3478 77.024 75.8144 77.2747 75.3878 77.776C74.9718 78.2667 74.7638 78.9707 74.7638 79.888V84H73.4198V79.504C73.4198 78.6827 73.2544 78.064 72.9238 77.648C72.5931 77.232 72.1184 77.024 71.4998 77.024C70.8704 77.024 70.3424 77.2747 69.9158 77.776C69.4998 78.2667 69.2918 78.9707 69.2918 79.888V84H67.9478ZM84.9003 84.192C84.2389 84.192 83.6896 84.08 83.2523 83.856C82.8149 83.632 82.4896 83.3333 82.2763 82.96C82.0629 82.5867 81.9563 82.1813 81.9563 81.744C81.9563 80.9333 82.2656 80.3093 82.8843 79.872C83.5029 79.4347 84.3456 79.216 85.4123 79.216H87.5563V79.12C87.5563 78.4267 87.3749 77.904 87.0123 77.552C86.6496 77.1893 86.1643 77.008 85.5563 77.008C85.0336 77.008 84.5803 77.1413 84.1963 77.408C83.8229 77.664 83.5883 78.0427 83.4923 78.544H82.1163C82.1696 77.968 82.3616 77.4827 82.6923 77.088C83.0336 76.6933 83.4549 76.3947 83.9563 76.192C84.4576 75.9787 84.9909 75.872 85.5563 75.872C86.6656 75.872 87.4976 76.1707 88.0523 76.768C88.6176 77.3547 88.9003 78.1387 88.9003 79.12V84H87.7003L87.6203 82.576C87.3963 83.024 87.0656 83.408 86.6283 83.728C86.2016 84.0373 85.6256 84.192 84.9003 84.192ZM85.1083 83.056C85.6203 83.056 86.0576 82.9227 86.4203 82.656C86.7936 82.3893 87.0763 82.0427 87.2683 81.616C87.4603 81.1893 87.5563 80.7413 87.5563 80.272V80.256H85.5243C84.7349 80.256 84.1749 80.3947 83.8443 80.672C83.5243 80.9387 83.3643 81.2747 83.3643 81.68C83.3643 82.096 83.5136 82.432 83.8123 82.688C84.1216 82.9333 84.5536 83.056 85.1083 83.056ZM95.1565 84.192C94.5058 84.192 93.9245 84.0587 93.4125 83.792C92.9112 83.5253 92.5272 83.152 92.2605 82.672L92.1325 84H90.9165V72.48H92.2605V77.376C92.5165 76.992 92.8792 76.6453 93.3485 76.336C93.8285 76.0267 94.4365 75.872 95.1725 75.872C95.9618 75.872 96.6498 76.0533 97.2365 76.416C97.8232 76.7787 98.2765 77.2747 98.5965 77.904C98.9272 78.5333 99.0925 79.248 99.0925 80.048C99.0925 80.848 98.9272 81.5627 98.5965 82.192C98.2765 82.8107 97.8178 83.3013 97.2205 83.664C96.6338 84.016 95.9458 84.192 95.1565 84.192ZM95.0125 83.024C95.5458 83.024 96.0152 82.9013 96.4205 82.656C96.8258 82.4 97.1458 82.048 97.3805 81.6C97.6152 81.152 97.7325 80.6293 97.7325 80.032C97.7325 79.4347 97.6152 78.912 97.3805 78.464C97.1458 78.016 96.8258 77.6693 96.4205 77.424C96.0152 77.168 95.5458 77.04 95.0125 77.04C94.4792 77.04 94.0098 77.168 93.6045 77.424C93.1992 77.6693 92.8792 78.016 92.6445 78.464C92.4098 78.912 92.2925 79.4347 92.2925 80.032C92.2925 80.6293 92.4098 81.152 92.6445 81.6C92.8792 82.048 93.1992 82.4 93.6045 82.656C94.0098 82.9013 94.4792 83.024 95.0125 83.024Z" fill="#2D2B35"/>
<g clip-path="url(#clip0)">
<path d="M71.6594 32.7601L64.2418 25.3426C63.7864 24.8871 63.0487 24.8871 62.5943 25.3426C62.1378 25.7981 62.1378 26.5347 62.5943 26.9912L65.4783 29.8751L62.6759 32.6775L60.0297 30.0303C59.7486 29.7492 59.3667 29.59 58.9676 29.59C58.5686 29.59 58.1877 29.7482 57.9045 30.0303L45.4274 42.5085C44.6112 43.3257 44.2192 44.4745 44.3673 45.6192L44.982 50.3714L40.3416 55.0108C39.8861 55.4673 39.8861 56.2039 40.3416 56.6594C40.5693 56.8881 40.8666 57 41.1649 57C41.4632 57 41.7614 56.8871 41.9902 56.6594L46.7021 51.9474L51.409 52.6085C52.5698 52.7717 53.7388 52.3777 54.5661 51.5474L66.9727 39.0934C67.5571 38.507 67.5561 37.5577 66.9706 36.9723L64.3225 34.3241L67.1238 31.5217L70.0078 34.4067C70.2366 34.6354 70.5348 34.7493 70.8331 34.7493C71.1304 34.7493 71.4286 34.6354 71.6574 34.4077C72.1139 33.9522 72.1139 33.2156 71.6594 32.7601ZM47.4246 48.8972C47.0911 49.2307 46.552 49.2307 46.2194 48.8972C45.8859 48.5646 45.8859 48.0255 46.2194 47.693C46.552 47.3605 47.0911 47.3605 47.4246 47.693C47.7571 48.0265 47.7571 48.5646 47.4246 48.8972ZM51.8725 42.3261L48.4968 45.7018C48.2691 45.9306 47.9708 46.0434 47.6735 46.0434C47.3752 46.0434 47.077 45.9306 46.8492 45.7018C46.3938 45.2463 46.3938 44.5087 46.8492 44.0543L50.225 40.6785C50.6794 40.223 51.4181 40.223 51.8725 40.6785C52.329 41.134 52.329 41.8716 51.8725 42.3261ZM52.3885 38.8435L52.6384 38.5936L53.6692 39.6245C53.7821 39.7383 53.9312 39.7938 54.0804 39.7938C54.2305 39.7938 54.3786 39.7373 54.4925 39.6245C54.7202 39.3957 54.7202 39.0279 54.4925 38.7992L53.4637 37.7693L54.036 37.197L55.0669 38.2278C55.1808 38.3417 55.3289 38.3971 55.478 38.3971C55.6272 38.3971 55.7763 38.3407 55.8902 38.2278C56.1179 38.0001 56.1179 37.6313 55.8902 37.4035L54.8603 36.3727L55.4327 35.8003L56.4625 36.8302C56.5764 36.944 56.7255 37.0015 56.8747 37.0015C57.0238 37.0015 57.1729 36.944 57.2868 36.8302C57.5145 36.6034 57.5145 36.2336 57.2868 36.0069L56.256 34.976L56.8293 34.4027L57.8582 35.4325C57.972 35.5464 58.1222 35.6038 58.2703 35.6038C58.4205 35.6038 58.5676 35.5464 58.6825 35.4325C58.9102 35.2048 58.9102 34.837 58.6825 34.6092L57.6526 33.5804L58.3247 32.9083C58.6804 32.5526 59.2528 32.5526 59.6075 32.9083L61.0273 34.3281L54.4703 40.8851L52.3885 38.8435ZM64.0937 37.3925C64.264 37.5628 64.3597 37.7935 64.3597 38.0344C64.3607 38.2752 64.264 38.506 64.0937 38.6762L58.2149 44.5551L56.133 42.5145L62.6739 35.9736L64.0937 37.3925Z" fill="#A6A9B4"/>
</g>
<defs>
<clipPath id="clip0">
<rect width="32" height="32" fill="white" transform="translate(40 25)"/>
</clipPath>
</defs>
</svg>
