<svg width="113" height="113" viewBox="0 0 113 113" fill="none" xmlns="http://www.w3.org/2000/svg">
<path d="M24.9819 84L20.7739 72.8H22.2299L25.7659 82.576L29.3339 72.8H30.7579L26.5499 84H24.9819ZM34.7345 84.192C33.9772 84.192 33.3052 84.0213 32.7185 83.68C32.1318 83.328 31.6678 82.8427 31.3265 82.224C30.9958 81.6053 30.8305 80.8747 30.8305 80.032C30.8305 79.2 30.9958 78.4747 31.3265 77.856C31.6572 77.2267 32.1158 76.7413 32.7025 76.4C33.2998 76.048 33.9878 75.872 34.7665 75.872C35.5345 75.872 36.1958 76.048 36.7505 76.4C37.3158 76.7413 37.7478 77.1947 38.0465 77.76C38.3452 78.3253 38.4945 78.9333 38.4945 79.584C38.4945 79.7013 38.4892 79.8187 38.4785 79.936C38.4785 80.0533 38.4785 80.1867 38.4785 80.336H32.1585C32.1905 80.944 32.3292 81.4507 32.5745 81.856C32.8305 82.2507 33.1452 82.5493 33.5185 82.752C33.9025 82.9547 34.3078 83.056 34.7345 83.056C35.2892 83.056 35.7532 82.928 36.1265 82.672C36.4998 82.416 36.7718 82.0693 36.9425 81.632H38.2705C38.0572 82.368 37.6465 82.9813 37.0385 83.472C36.4412 83.952 35.6732 84.192 34.7345 84.192ZM34.7345 77.008C34.0945 77.008 33.5238 77.2053 33.0225 77.6C32.5318 77.984 32.2492 78.5493 32.1745 79.296H37.1665C37.1345 78.5813 36.8892 78.0213 36.4305 77.616C35.9718 77.2107 35.4065 77.008 34.7345 77.008ZM40.2759 84V76.064H41.4919L41.5719 77.488C41.8279 76.9867 42.1959 76.592 42.6759 76.304C43.1559 76.016 43.6999 75.872 44.3079 75.872C45.2465 75.872 45.9932 76.16 46.5479 76.736C47.1132 77.3013 47.3959 78.176 47.3959 79.36V84H46.0519V79.504C46.0519 77.8507 45.3692 77.024 44.0039 77.024C43.3212 77.024 42.7505 77.2747 42.2919 77.776C41.8439 78.2667 41.6199 78.9707 41.6199 79.888V84H40.2759ZM52.5681 84C51.8428 84 51.2721 83.824 50.8561 83.472C50.4401 83.12 50.2321 82.4853 50.2321 81.568V77.2H48.8561V76.064H50.2321L50.4081 74.16H51.5761V76.064H53.9121V77.2H51.5761V81.568C51.5761 82.0693 51.6775 82.4107 51.8801 82.592C52.0828 82.7627 52.4401 82.848 52.9521 82.848H53.7841V84H52.5681ZM56.4356 74.304C56.169 74.304 55.945 74.2187 55.7636 74.048C55.593 73.8667 55.5076 73.6427 55.5076 73.376C55.5076 73.12 55.593 72.9067 55.7636 72.736C55.945 72.5653 56.169 72.48 56.4356 72.48C56.6916 72.48 56.9103 72.5653 57.0916 72.736C57.273 72.9067 57.3636 73.12 57.3636 73.376C57.3636 73.6427 57.273 73.8667 57.0916 74.048C56.9103 74.2187 56.6916 74.304 56.4356 74.304ZM55.7636 84V76.064H57.1076V84H55.7636ZM59.4478 84V72.48H60.7918V84H59.4478ZM65.6346 84.192C64.9733 84.192 64.424 84.08 63.9866 83.856C63.5493 83.632 63.224 83.3333 63.0106 82.96C62.7973 82.5867 62.6906 82.1813 62.6906 81.744C62.6906 80.9333 63 80.3093 63.6186 79.872C64.2373 79.4347 65.08 79.216 66.1466 79.216H68.2906V79.12C68.2906 78.4267 68.1093 77.904 67.7466 77.552C67.384 77.1893 66.8986 77.008 66.2906 77.008C65.768 77.008 65.3146 77.1413 64.9306 77.408C64.5573 77.664 64.3226 78.0427 64.2266 78.544H62.8506C62.904 77.968 63.096 77.4827 63.4266 77.088C63.768 76.6933 64.1893 76.3947 64.6906 76.192C65.192 75.9787 65.7253 75.872 66.2906 75.872C67.4 75.872 68.232 76.1707 68.7866 76.768C69.352 77.3547 69.6346 78.1387 69.6346 79.12V84H68.4346L68.3546 82.576C68.1306 83.024 67.8 83.408 67.3626 83.728C66.936 84.0373 66.36 84.192 65.6346 84.192ZM65.8426 83.056C66.3546 83.056 66.792 82.9227 67.1546 82.656C67.528 82.3893 67.8106 82.0427 68.0026 81.616C68.1946 81.1893 68.2906 80.7413 68.2906 80.272V80.256H66.2586C65.4693 80.256 64.9093 80.3947 64.5786 80.672C64.2586 80.9387 64.0986 81.2747 64.0986 81.68C64.0986 82.096 64.248 82.432 64.5466 82.688C64.856 82.9333 65.288 83.056 65.8426 83.056ZM74.5681 84C73.8428 84 73.2721 83.824 72.8561 83.472C72.4401 83.12 72.2321 82.4853 72.2321 81.568V77.2H70.8561V76.064H72.2321L72.4081 74.16H73.5761V76.064H75.9121V77.2H73.5761V81.568C73.5761 82.0693 73.6775 82.4107 73.8801 82.592C74.0828 82.7627 74.4401 82.848 74.9521 82.848H75.7841V84H74.5681ZM81.0169 84.192C80.2702 84.192 79.5982 84.0213 79.0009 83.68C78.4035 83.3387 77.9289 82.8587 77.5769 82.24C77.2355 81.6107 77.0649 80.8747 77.0649 80.032C77.0649 79.1893 77.2409 78.4587 77.5929 77.84C77.9449 77.2107 78.4195 76.7253 79.0169 76.384C79.6249 76.0427 80.3022 75.872 81.0489 75.872C81.7955 75.872 82.4675 76.0427 83.0649 76.384C83.6622 76.7253 84.1315 77.2107 84.4729 77.84C84.8249 78.4587 85.0009 79.1893 85.0009 80.032C85.0009 80.8747 84.8249 81.6107 84.4729 82.24C84.1209 82.8587 83.6409 83.3387 83.0329 83.68C82.4355 84.0213 81.7635 84.192 81.0169 84.192ZM81.0169 83.04C81.4755 83.04 81.9022 82.928 82.2969 82.704C82.6915 82.48 83.0115 82.144 83.2569 81.696C83.5022 81.248 83.6249 80.6933 83.6249 80.032C83.6249 79.3707 83.5022 78.816 83.2569 78.368C83.0222 77.92 82.7075 77.584 82.3129 77.36C81.9182 77.136 81.4969 77.024 81.0489 77.024C80.5902 77.024 80.1635 77.136 79.7689 77.36C79.3742 77.584 79.0542 77.92 78.8089 78.368C78.5635 78.816 78.4409 79.3707 78.4409 80.032C78.4409 80.6933 78.5635 81.248 78.8089 81.696C79.0542 82.144 79.3689 82.48 79.7529 82.704C80.1475 82.928 80.5689 83.04 81.0169 83.04ZM86.8696 84V76.064H88.0856L88.1976 77.584C88.443 77.0613 88.8163 76.6453 89.3176 76.336C89.819 76.0267 90.4376 75.872 91.1736 75.872V77.28H90.8056C90.3363 77.28 89.9043 77.3653 89.5096 77.536C89.115 77.696 88.8003 77.9733 88.5656 78.368C88.331 78.7627 88.2136 79.3067 88.2136 80V84H86.8696Z" fill="#2D2B35"/>
<g clip-path="url(#clip0)">
<path d="M46.3584 38.8417H50.4612C50.8271 38.8417 51.1669 38.6493 51.3624 38.3405L51.6711 37.8483L52.6024 42.3764C52.7046 42.8726 53.1417 43.1613 53.6489 43.1613C53.6529 43.1613 53.6569 43.1613 53.6609 43.1613C54.1722 43.1613 54.6092 42.8545 54.6994 42.3493L55.7951 36.3557L56.7804 42.0215C56.8626 42.4967 57.2526 42.8535 57.7317 42.8986C58.2089 42.9588 58.663 42.659 58.8314 42.2079L60.1034 38.8417H66.6532C67.2426 38.8417 67.7208 38.3766 67.7208 37.7852C67.7208 37.1957 67.2416 36.7316 66.6532 36.7316H59.3647C58.9216 36.7316 58.5226 37.0163 58.3663 37.4323L58.2169 37.8363L56.8687 30.1024C56.7804 29.5912 56.3384 29.2694 55.8201 29.2694C55.8191 29.2694 55.8181 29.2694 55.8161 29.2694C55.2999 29.2694 54.8578 29.5852 54.7656 30.0964L53.5858 36.5722L53.2369 34.86C53.1497 34.433 52.8119 34.1022 52.3819 34.024C51.9558 33.9498 51.5218 34.1363 51.2872 34.5032L49.8748 36.7316H46.3584C45.7679 36.7316 45.2898 37.1957 45.2898 37.7852C45.2898 38.3766 45.7679 38.8417 46.3584 38.8417Z" fill="#A6A9B4"/>
<path d="M69.2524 47.7745H70.4803C71.3725 47.7745 72.001 47.0307 72.001 46.1335V26.7623C72.001 25.8701 71.3725 25.1965 70.4803 25.1965H41.4184C40.5283 25.1965 40 25.8711 40 26.7623V46.1345C40 47.0317 40.5283 47.7755 41.4184 47.7755H42.7486V47.7966V48.6085H42.7376H41.8484C40.9353 48.6085 40.1955 49.3483 40.1955 50.2616V55.5114C40.1955 56.2261 40.7749 56.8055 41.4886 56.8055H70.5094C71.2241 56.8055 71.8035 56.2261 71.8035 55.5114V49.8997C71.8035 49.1849 71.2241 48.6075 70.5094 48.6075H69.2724H69.2504V47.7946V47.7745H69.2524ZM42.0423 30.5615C42.0423 27.4855 42.0423 27.4855 45.1183 27.4855H66.6361C69.7111 27.4855 69.7111 27.4855 69.7111 30.5615V42.656C69.7111 45.7301 69.7111 45.7301 66.6361 45.7301H45.1183C42.0423 45.7301 42.0423 45.5 42.0423 42.656V30.5615ZM55.9504 54.1526C55.9504 54.5145 55.6567 54.8092 55.2938 54.8092H43.7981C43.4353 54.8092 43.1416 54.5145 43.1416 54.1526V51.3567C43.1416 50.9938 43.4353 50.7001 43.7981 50.7001H55.2938C55.6567 50.7001 55.9514 50.9938 55.9514 51.3567L55.9504 54.1526ZM62.5272 54.1526C62.5272 54.5145 62.2335 54.8092 61.8716 54.8092H59.5541C59.1922 54.8092 58.8985 54.5145 58.8985 54.1526V51.3567C58.8985 50.9938 59.1922 50.7001 59.5541 50.7001H61.8716C62.2335 50.7001 62.5292 50.9938 62.5292 51.3567V54.1526H62.5272ZM68.8093 54.1526C68.8093 54.5145 68.5156 54.8092 68.1527 54.8092H65.785C65.4232 54.8092 65.1295 54.5145 65.1295 54.1526V51.3567C65.1295 50.9938 65.4232 50.7001 65.785 50.7001H68.1517C68.5136 50.7001 68.8093 50.9938 68.8093 51.3567V54.1526ZM60.9885 48.6065H51.0436V47.7946V47.7735H61.0065V47.7946V48.6065H60.9885Z" fill="#A6A9B4"/>
</g>
<defs>
<clipPath id="clip0">
<rect width="32" height="32" fill="white" transform="translate(40 25)"/>
</clipPath>
</defs>
</svg>
