<svg width="113" height="113" viewBox="0 0 113 113" fill="none" xmlns="http://www.w3.org/2000/svg">
<path d="M41.0814 84V73.904H37.7374V72.8H45.7694V73.904H42.4254V84H41.0814ZM49.4611 84.192C48.7037 84.192 48.0317 84.0213 47.4451 83.68C46.8584 83.328 46.3944 82.8427 46.0531 82.224C45.7224 81.6053 45.5571 80.8747 45.5571 80.032C45.5571 79.2 45.7224 78.4747 46.0531 77.856C46.3837 77.2267 46.8424 76.7413 47.4291 76.4C48.0264 76.048 48.7144 75.872 49.4931 75.872C50.2611 75.872 50.9224 76.048 51.4771 76.4C52.0424 76.7413 52.4744 77.1947 52.7731 77.76C53.0717 78.3253 53.2211 78.9333 53.2211 79.584C53.2211 79.7013 53.2157 79.8187 53.2051 79.936C53.2051 80.0533 53.2051 80.1867 53.2051 80.336H46.8851C46.9171 80.944 47.0557 81.4507 47.3011 81.856C47.5571 82.2507 47.8717 82.5493 48.2451 82.752C48.6291 82.9547 49.0344 83.056 49.4611 83.056C50.0157 83.056 50.4797 82.928 50.8531 82.672C51.2264 82.416 51.4984 82.0693 51.6691 81.632H52.9971C52.7837 82.368 52.3731 82.9813 51.7651 83.472C51.1677 83.952 50.3997 84.192 49.4611 84.192ZM49.4611 77.008C48.8211 77.008 48.2504 77.2053 47.7491 77.6C47.2584 77.984 46.9757 78.5493 46.9011 79.296H51.8931C51.8611 78.5813 51.6157 78.0213 51.1571 77.616C50.6984 77.2107 50.1331 77.008 49.4611 77.008ZM58.0424 84.192C57.0931 84.192 56.3038 83.952 55.6744 83.472C55.0451 82.992 54.6771 82.3413 54.5704 81.52H55.9464C56.0318 81.936 56.2504 82.2987 56.6024 82.608C56.9651 82.9067 57.4504 83.056 58.0584 83.056C58.6238 83.056 59.0398 82.9387 59.3064 82.704C59.5731 82.4587 59.7064 82.1707 59.7064 81.84C59.7064 81.36 59.5304 81.04 59.1784 80.88C58.8371 80.72 58.3518 80.576 57.7224 80.448C57.2958 80.3627 56.8691 80.24 56.4424 80.08C56.0158 79.92 55.6584 79.696 55.3704 79.408C55.0824 79.1093 54.9384 78.72 54.9384 78.24C54.9384 77.5467 55.1944 76.9813 55.7064 76.544C56.2291 76.096 56.9331 75.872 57.8184 75.872C58.6611 75.872 59.3491 76.0853 59.8824 76.512C60.4264 76.928 60.7411 77.5253 60.8264 78.304H59.4984C59.4451 77.8987 59.2691 77.584 58.9704 77.36C58.6824 77.1253 58.2931 77.008 57.8024 77.008C57.3224 77.008 56.9491 77.1093 56.6824 77.312C56.4264 77.5147 56.2984 77.7813 56.2984 78.112C56.2984 78.432 56.4638 78.6827 56.7944 78.864C57.1358 79.0453 57.5944 79.2 58.1704 79.328C58.6611 79.4347 59.1251 79.568 59.5624 79.728C60.0104 79.8773 60.3731 80.1067 60.6504 80.416C60.9384 80.7147 61.0824 81.152 61.0824 81.728C61.0931 82.4427 60.8211 83.0347 60.2664 83.504C59.7224 83.9627 58.9811 84.192 58.0424 84.192ZM65.7791 84C65.0537 84 64.4831 83.824 64.0671 83.472C63.6511 83.12 63.4431 82.4853 63.4431 81.568V77.2H62.0671V76.064H63.4431L63.6191 74.16H64.7871V76.064H67.1231V77.2H64.7871V81.568C64.7871 82.0693 64.8884 82.4107 65.0911 82.592C65.2937 82.7627 65.6511 82.848 66.1631 82.848H66.9951V84H65.7791ZM71.8706 84.192C70.9212 84.192 70.1319 83.952 69.5026 83.472C68.8732 82.992 68.5052 82.3413 68.3986 81.52H69.7746C69.8599 81.936 70.0786 82.2987 70.4306 82.608C70.7932 82.9067 71.2786 83.056 71.8866 83.056C72.4519 83.056 72.8679 82.9387 73.1346 82.704C73.4012 82.4587 73.5346 82.1707 73.5346 81.84C73.5346 81.36 73.3586 81.04 73.0066 80.88C72.6652 80.72 72.1799 80.576 71.5506 80.448C71.1239 80.3627 70.6972 80.24 70.2706 80.08C69.8439 79.92 69.4866 79.696 69.1986 79.408C68.9106 79.1093 68.7666 78.72 68.7666 78.24C68.7666 77.5467 69.0226 76.9813 69.5346 76.544C70.0572 76.096 70.7612 75.872 71.6466 75.872C72.4892 75.872 73.1772 76.0853 73.7106 76.512C74.2546 76.928 74.5692 77.5253 74.6546 78.304H73.3266C73.2732 77.8987 73.0972 77.584 72.7986 77.36C72.5106 77.1253 72.1212 77.008 71.6306 77.008C71.1506 77.008 70.7772 77.1093 70.5106 77.312C70.2546 77.5147 70.1266 77.7813 70.1266 78.112C70.1266 78.432 70.2919 78.6827 70.6226 78.864C70.9639 79.0453 71.4226 79.2 71.9986 79.328C72.4892 79.4347 72.9532 79.568 73.3906 79.728C73.8386 79.8773 74.2012 80.1067 74.4786 80.416C74.7666 80.7147 74.9106 81.152 74.9106 81.728C74.9212 82.4427 74.6492 83.0347 74.0946 83.504C73.5506 83.9627 72.8092 84.192 71.8706 84.192Z" fill="#2D2B35"/>
<g clip-path="url(#clip0)">
<path d="M50.4569 36.889C50.3088 37.1954 50.2893 37.5491 50.4013 37.8709C50.5134 38.1927 50.7509 38.4559 51.0583 38.6039L52.1995 39.1509C52.8359 39.4562 53.6008 39.1899 53.9093 38.5535L54.0234 38.3181L54.1673 38.3859C54.8037 38.6913 55.5676 38.423 55.876 37.7876L57.5909 34.2437C58.5306 34.7701 59.5145 35.4856 60.2136 36.4264C61.1801 35.5453 62.4632 35.0106 63.8737 35.0106C64.0156 35.0106 64.1523 35.0178 64.2881 35.0281C63.1129 32.8825 61.1513 31.4256 59.4097 30.487L60.1694 28.9139C60.3185 28.6065 60.338 28.2518 60.227 27.9311C60.116 27.6093 59.8785 27.345 59.569 27.197L59.4343 27.1322C59.531 26.9317 59.5433 26.7014 59.4703 26.4917C59.3983 26.282 59.2431 26.1103 59.0447 26.0136L57.1005 25.0822C56.6831 24.8827 56.1814 25.0575 55.9809 25.4749L55.8349 25.405C55.1975 25.0996 54.4336 25.368 54.1252 26.0034L49.8328 34.8801C49.6847 35.1875 49.6642 35.5412 49.7762 35.8619C49.8893 36.1837 50.1258 36.448 50.4332 36.596L50.5679 36.6597L50.4569 36.889Z" fill="#A6A9B4"/>
<path d="M60.222 44.4313C60.0009 44.8333 59.7418 45.223 59.4221 45.5818C58.6428 46.4536 57.6013 47.0654 56.2864 47.417V46.1565H57.3535V45.0215C57.3535 44.5599 56.9793 44.1866 56.5177 44.1866H47.5094C47.0477 44.1866 46.6745 44.5599 46.6745 45.0215V46.1565H48.5241H48.5632V52.6984C48.5498 52.7046 48.5375 52.7097 48.5241 52.7159C46.4689 53.5414 44.7736 55.0291 43.7341 56.999H60.3217C59.4098 55.2748 57.9961 53.927 56.2812 53.0572C56.2421 53.0356 56.2021 53.0192 56.163 52.9976C56.2051 53.0192 56.2452 53.0346 56.2864 53.0572V51.6898C58.835 51.2241 60.9663 50.1096 62.5311 48.3546C63.2385 47.5609 63.7741 46.7004 64.1792 45.8306C64.0784 45.8368 63.9777 45.8388 63.8749 45.8388C62.4684 45.8398 61.1853 45.3052 60.222 44.4313Z" fill="#A6A9B4"/>
<path d="M63.8728 36.0521C61.4526 36.0521 59.4817 38.0138 59.4817 40.4257C59.4817 42.8366 61.4536 44.7962 63.8728 44.7962C66.296 44.7962 68.2659 42.8366 68.2659 40.4257C68.2659 38.0138 66.2981 36.0521 63.8728 36.0521Z" fill="#A6A9B4"/>
</g>
<defs>
<clipPath id="clip0">
<rect width="32" height="32" fill="white" transform="translate(40 25)"/>
</clipPath>
</defs>
</svg>
